<svg xmlns="http://www.w3.org/2000/svg" width="296.5" height="360.796" viewBox="0 0 296.5 360.796"><defs><style>.a,.e,.i,.l,.p{fill:#1a73e8;}.b,.d,.n,.o,.r,.u,.w{fill:#fff;}.b{opacity:0.7;}.c{opacity:0.2;}.d,.e,.f,.g,.i,.k,.l,.m,.n,.p,.q,.r,.s{stroke:#19334d;}.d,.e,.f,.g,.l,.m,.n,.o,.v,.w{stroke-linecap:round;stroke-linejoin:round;}.f,.h,.j,.k,.m,.q{fill:#19334d;}.g,.s,.t,.v{fill:none;}.i,.j,.k,.p,.q,.r,.s,.t{stroke-miterlimit:10;}.i,.j,.k,.s,.t{stroke-width:0.5px;}.j,.o,.t,.w{stroke:#263238;}.l,.m,.n,.o{stroke-width:0.75px;}.u{opacity:0.5;}.v{stroke:#fff;}</style></defs><g transform="translate(-84.5 -47.589)"><g transform="translate(97.428 47.589)"><path class="a" d="M333.094,79.5C290.059,48.59,216.6,40.6,178.273,53.519c-69.112,23.32-80.195,68.634-79.447,109.146s52.676,75.3,66.5,110.714,39.169,83.015,88.124,68.436,46.855-67.292,61.687-102.884,53.622-72.085,51.514-104.758C365.181,111.358,352.107,93.2,333.094,79.5Z" transform="translate(-98.792 -47.589)"/><path class="b" d="M333.094,79.5C290.059,48.59,216.6,40.6,178.273,53.519c-69.112,23.32-80.195,68.634-79.447,109.146s52.676,75.3,66.5,110.714,39.169,83.015,88.124,68.436,46.855-67.292,61.687-102.884,53.622-72.085,51.514-104.758C365.181,111.358,352.107,93.2,333.094,79.5Z" transform="translate(-98.792 -47.589)"/></g><g transform="translate(85 62.133)"><rect class="c" width="133.781" height="100.829" rx="8.55" transform="translate(3.316 47.738)"/><rect class="d" width="133.781" height="100.829" rx="8.55" transform="translate(0 42.431)"/><path class="e" d="M129.7,158.694l-28.6,9.281a30.1,30.1,0,0,1,19.319-37.917,28.573,28.573,0,0,1,9.281-1.478Z" transform="translate(-86.446 -70.146)"/><path class="d" d="M129.86,162l17.688,24.329a30.087,30.087,0,0,1-42.017-6.659,28.609,28.609,0,0,1-4.271-8.389Z" transform="translate(-86.609 -73.452)"/><path class="f" d="M133,160.979l28.618-9.3a29.618,29.618,0,0,1-10.912,33.628Z" transform="translate(-89.749 -72.431)"/><path class="d" d="M133,158.7V128.6a29.627,29.627,0,0,1,28.618,20.8Z" transform="translate(-89.749 -70.148)"/><circle class="d" cx="18.76" cy="18.76" r="18.76" transform="translate(24.536 69.77)"/><rect class="e" width="41.224" height="3.415" transform="translate(81.817 56.614)"/><rect class="f" width="32.357" height="3.415" transform="translate(81.817 63.922)"/><rect class="d" width="23.779" height="3.415" transform="translate(81.817 71.229)"/><rect class="e" width="33.79" height="3.415" transform="translate(81.817 78.537)"/><rect class="f" width="16.057" height="3.415" transform="translate(81.817 85.845)"/><rect class="d" width="41.224" height="3.415" transform="translate(81.817 93.161)"/><rect class="e" width="30.357" height="3.415" transform="translate(81.817 100.469)"/><rect class="f" width="26.527" height="3.415" transform="translate(81.817 107.776)"/><rect class="d" width="41.224" height="3.415" transform="translate(81.817 115.084)"/><line class="g" x2="31.952" transform="translate(27.951 125.041)"/><line class="g" x2="40.998" transform="translate(23.428 129.546)"/><line class="g" x2="31.952" transform="translate(82.916 125.041)"/><line class="g" x2="40.998" transform="translate(78.393 129.546)"/><rect class="c" width="117.066" height="88.232" rx="8.55" transform="translate(20.688 190.62)"/><rect class="d" width="117.066" height="88.232" rx="8.55" transform="translate(16.706 185.989)"/><line class="g" x2="15.615" transform="translate(24.725 227.934)"/><line class="g" x2="24.698" transform="translate(24.725 231.466)"/><line class="g" x2="15.615" transform="translate(24.725 234.989)"/><line class="g" x2="22.527" transform="translate(24.725 238.512)"/><line class="g" x2="15.615" transform="translate(24.725 242.044)"/><line class="g" x2="27.591" transform="translate(24.725 245.567)"/><line class="g" x2="15.615" transform="translate(63.831 227.934)"/><line class="g" x2="24.698" transform="translate(63.831 231.466)"/><line class="g" x2="15.615" transform="translate(63.831 234.989)"/><line class="g" x2="22.527" transform="translate(63.831 238.512)"/><line class="g" x2="15.615" transform="translate(63.831 242.044)"/><line class="g" x2="27.591" transform="translate(63.831 245.567)"/><line class="g" x2="15.615" transform="translate(102.938 227.934)"/><line class="g" x2="24.689" transform="translate(102.938 231.466)"/><line class="g" x2="15.615" transform="translate(102.938 234.989)"/><line class="g" x2="22.518" transform="translate(102.938 238.512)"/><line class="g" x2="15.615" transform="translate(102.938 242.044)"/><line class="g" x2="27.591" transform="translate(102.938 245.567)"/><rect class="h" width="30.222" height="6.046" transform="translate(23.725 216.346)"/><rect class="h" width="30.222" height="6.046" transform="translate(63.516 216.346)"/><rect class="h" width="30.222" height="6.046" transform="translate(103.307 216.346)"/><line class="g" y2="30.591" transform="translate(58.659 215.994)"/><line class="g" y2="30.591" transform="translate(98.126 215.994)"/><path class="i" d="M124.245,287.175l6.542-2.127a6.875,6.875,0,1,1-8.668-4.415,6.559,6.559,0,0,1,2.127-.333Z" transform="translate(-88.203 -85.156)"/><path class="j" d="M125,287.175V280.3a6.767,6.767,0,0,1,6.542,4.749Z" transform="translate(-88.957 -85.156)"/><path class="i" d="M197.745,287.175l6.542-2.127a6.875,6.875,0,1,1-8.659-4.415,6.506,6.506,0,0,1,2.118-.333Z" transform="translate(-95.474 -85.156)"/><path class="k" d="M198.5,287.175V280.3a6.758,6.758,0,0,1,6.542,4.749Z" transform="translate(-96.229 -85.156)"/><path class="i" d="M148.765,287.175v6.875a6.875,6.875,0,0,1,0-13.75h0Z" transform="translate(-90.628 -85.156)"/><path class="k" d="M149.52,287.175V280.3a6.875,6.875,0,1,1,0,13.75h0Z" transform="translate(-91.383 -85.156)"/><path class="i" d="M173.245,287.175l6.542,2.127a6.879,6.879,0,0,1-13.083-4.253,6.767,6.767,0,0,1,6.542-4.749Z" transform="translate(-93.05 -85.156)"/><path class="k" d="M174,287.175V280.3a6.875,6.875,0,0,1,6.884,6.875,6.569,6.569,0,0,1-.342,2.127Z" transform="translate(-93.805 -85.156)"/><path class="i" d="M222.245,287.175l6.542,2.127a6.879,6.879,0,0,1-13.083-4.253,6.767,6.767,0,0,1,6.542-4.749Z" transform="translate(-97.897 -85.156)"/><path class="k" d="M223,287.175V280.3a6.866,6.866,0,0,1,6.875,6.875,6.561,6.561,0,0,1-.333,2.126Z" transform="translate(-98.653 -85.156)"/><rect class="l" width="6.019" height="2.036" transform="translate(119.68 264.436)"/><rect class="m" width="6.019" height="12.209" transform="translate(112.994 254.263)"/><rect class="n" width="6.019" height="7.83" transform="translate(106.317 258.651)"/><rect class="l" width="6.019" height="13.93" transform="translate(99.631 252.542)"/><rect class="m" width="6.019" height="3.604" transform="translate(92.945 262.877)"/><rect class="n" width="6.019" height="4.695" transform="translate(86.259 261.778)"/><rect class="l" width="6.019" height="9.398" transform="translate(79.573 257.083)"/><rect class="m" width="6.019" height="1.568" transform="translate(72.887 264.913)"/><rect class="n" width="6.019" height="12.209" transform="translate(66.201 254.263)"/><rect class="l" width="6.019" height="9.867" transform="translate(59.515 256.614)"/><rect class="m" width="6.019" height="0.469" transform="translate(52.838 266.004)"/><rect class="m" width="6.019" height="0.622" transform="translate(46.153 265.85)"/><rect class="l" width="6.019" height="7.83" transform="translate(39.467 258.651)"/><rect class="m" width="6.019" height="1.568" transform="translate(32.781 264.913)"/><rect class="n" width="6.019" height="3.136" transform="translate(26.095 263.345)"/><rect class="c" width="133.781" height="100.829" rx="8.55" transform="translate(162.219 114.228)"/><rect class="d" width="133.781" height="100.829" rx="8.55" transform="translate(157.578 108.93)"/><rect class="l" width="6.938" height="7.695" transform="translate(275.996 187.818)"/><rect class="m" width="6.938" height="46.162" transform="translate(268.283 149.343)"/><rect class="n" width="6.938" height="29.591" transform="translate(260.57 165.922)"/><rect class="l" width="6.938" height="52.676" transform="translate(252.866 142.837)"/><rect class="m" width="6.938" height="13.615" transform="translate(245.153 181.898)"/><rect class="n" width="6.938" height="17.751" transform="translate(237.44 177.753)"/><rect class="l" width="6.938" height="35.511" transform="translate(229.736 160.002)"/><rect class="m" width="6.938" height="5.92" transform="translate(222.023 189.593)"/><rect class="n" width="6.938" height="46.162" transform="translate(214.309 149.343)"/><rect class="l" width="6.938" height="37.286" transform="translate(206.605 158.227)"/><rect class="m" width="6.938" height="1.775" transform="translate(198.892 193.729)"/><rect class="n" width="6.938" height="2.37" transform="translate(191.179 193.143)"/><rect class="l" width="6.938" height="29.591" transform="translate(183.466 165.922)"/><rect class="m" width="6.938" height="5.92" transform="translate(175.762 189.593)"/><rect class="o" width="6.938" height="11.84" transform="translate(168.049 183.673)"/><rect class="p" width="114.435" height="5.857" transform="translate(168.95 129.997)"/><rect class="q" width="18.562" height="5.001" transform="translate(199.099 130.42)"/><rect class="r" width="34.862" height="5.001" transform="translate(218.409 130.42)"/><rect class="c" width="108.254" height="81.591" rx="8.55" transform="translate(173.149 5.298)"/><rect class="d" width="108.254" height="81.591" rx="8.55" transform="translate(169.166 0)"/><line class="s" x2="101.64" transform="translate(174.194 73.95)"/><line class="s" y2="1.505" transform="translate(174.194 73.95)"/><line class="s" y2="1.505" transform="translate(180.97 73.95)"/><line class="s" y2="1.505" transform="translate(187.746 73.95)"/><line class="s" y2="1.505" transform="translate(194.522 73.95)"/><line class="s" y2="1.505" transform="translate(201.298 73.95)"/><line class="s" y2="1.505" transform="translate(208.074 73.95)"/><line class="s" y2="1.505" transform="translate(214.85 73.95)"/><line class="s" y2="1.505" transform="translate(221.626 73.95)"/><line class="s" y2="1.505" transform="translate(228.402 73.95)"/><line class="s" y2="1.505" transform="translate(235.178 73.95)"/><line class="s" y2="1.505" transform="translate(241.954 73.95)"/><line class="s" y2="1.505" transform="translate(248.73 73.95)"/><line class="s" y2="1.505" transform="translate(255.506 73.95)"/><line class="s" y2="1.505" transform="translate(262.282 73.95)"/><line class="s" y2="1.505" transform="translate(269.058 73.95)"/><line class="t" y2="1.505" transform="translate(275.834 73.95)"/><path class="a" d="M282.08,137.24h94.864v-13.11l-6.713-12.975a1.071,1.071,0,0,1-.09-.288l-5.965-38.485a.721.721,0,0,0-1.442,0l-6.073,46.982a.9.9,0,0,1-.315.577l-5.848,4.505a.685.685,0,0,1-1.045-.3l-5.893-12.155a.676.676,0,0,0-1.18-.153l-6.091,7.884-6.776,8.74-6.776-8.74-5.974-7.7a.685.685,0,0,0-1.225.27l-6.308,19.67L302.453,96.9l-6.776,38.557-6.776-5.244-5.406-15.228c-.306-.9-1.406-.613-1.406.324Z" transform="translate(-104.498 -64.515)"/><path class="h" d="M376.944,138.284H282.08V127.048l6.7-11.155a.656.656,0,0,0,.09-.252l5.965-33.1a.739.739,0,0,1,1.451,0l6.064,40.4a.775.775,0,0,0,.324.5l5.848,3.893a.73.73,0,0,0,1.045-.252l5.884-10.452a.73.73,0,0,1,1.18-.126l6.1,6.758,6.776,7.515,6.776-7.515,5.965-6.623a.739.739,0,0,1,1.234.234l6.307,16.913h6.776l6.776,3.01,6.776-4.505,5.406-13.092a.73.73,0,0,1,1.415.279Z" transform="translate(-104.498 -65.532)"/><line class="g" x2="20.995" transform="translate(228.952 10.876)"/><line class="g" x2="20.995" transform="translate(228.952 15.796)"/><line class="g" x2="20.995" transform="translate(228.952 20.706)"/><line class="g" x2="20.995" transform="translate(228.952 25.626)"/><line class="g" x2="20.995" transform="translate(228.952 30.537)"/><line class="g" x2="20.995" transform="translate(228.952 35.457)"/><line class="g" x2="2.631" transform="translate(224.176 10.876)"/><line class="g" x2="2.631" transform="translate(224.176 15.796)"/><line class="g" x2="2.631" transform="translate(224.176 20.706)"/><line class="g" x2="2.631" transform="translate(224.176 25.626)"/><line class="g" x2="2.631" transform="translate(224.176 30.537)"/><line class="g" x2="2.631" transform="translate(224.176 35.457)"/></g><g transform="translate(177.864 355.223)"><ellipse class="a" cx="53.559" cy="26.581" rx="53.559" ry="26.581"/><ellipse class="u" cx="53.559" cy="26.581" rx="53.559" ry="26.581"/></g><g transform="translate(198.926 135.307)"><path class="d" d="M226.02,196.12s-13.75,49.045-13.75,52.82c0,3.217,4.505,9.641,9.479,7.064s6.1-10.6,6.1-10.6Z" transform="translate(-211.517 -150.002)"/><path class="d" d="M267.515,419.08s-7.037,9.506-7.569,13.516,4.911,4.325,7.308,2.46,7.389-14.03,7.389-14.03Z" transform="translate(-216.23 -172.06)"/><path class="d" d="M224.407,393.672s-12.047,5.064-12.047,7.956,6.262,2.163,10.813.478,11.8-4.577,11.8-4.577S228.021,392.951,224.407,393.672Z" transform="translate(-211.526 -169.539)"/><path class="f" d="M229.342,266.68l-.406,15.661s-3.127,28.672-4.577,44.1,3.136,50.838,3.136,50.838l-2.172,2.163v2.172l10.813,3.37a47.688,47.688,0,0,0,.964-6.749v-3.6l11.326-67.7s8.912,68.427,10.362,76.374,3.6,16.381,3.6,16.381l-.721,2.406.955,4.343,7.47,1.928a13.732,13.732,0,0,0,2.172-6.506c.478-4.343.721-14.462.721-14.462s-.478-35.142,1.207-59.02a278.488,278.488,0,0,0-.487-44.089l-1.2-15.895A59.2,59.2,0,0,1,229.342,266.68Z" transform="translate(-212.685 -156.983)"/><path class="v" d="M250.469,309.8l-1.207-8.912-4.812-5.055" transform="translate(-214.701 -159.867)"/><path class="v" d="M269.783,276.31s-3.379,6.262,5.776,9.155" transform="translate(-217.147 -157.935)"/><line class="v" y2="111.3" transform="translate(58.412 130.422)"/><path class="v" d="M242.493,277.91l.964,5.785s-2.406,4.334-1.442,6.262" transform="translate(-214.437 -158.094)"/><path class="d" d="M245.909,189.141s-18.066,5.289-18.382,6.253,2.154,63.579,2.154,63.579,4.821,7.389,18.021,8.515,25.7-5.785,25.7-5.785l8.614-57.01s-20.724-14.138-22.166-14.462S249.927,188.015,245.909,189.141Z" transform="translate(-213.024 -149.276)"/><path class="f" d="M246.55,202.137l4.289,10.524,7.335-8.308s-.55-5.262-5.406-5.812A5.677,5.677,0,0,0,246.55,202.137Z" transform="translate(-214.909 -150.234)"/><path class="d" d="M247.094,188.678l-7.614,12.038s4.433-1.108,6.506.694,4.433,3.739,4.433,3.739,3.6-2.91,6.506-1.937a21.048,21.048,0,0,1,5.533,3.046s1.8-11.9-.55-17.3S252.077,181.614,247.094,188.678Z" transform="translate(-214.209 -148.813)"/><path class="d" d="M250.056,190.057a98.969,98.969,0,0,0-.135,10.524c.27,4.433,1.658,5.406,3.316,2.5s5.406-11.768,5.406-14.264a43.8,43.8,0,0,1,.27-4.7S253.1,190.318,250.056,190.057Z" transform="translate(-215.234 -148.814)"/><path class="f" d="M250.519,214.22l-7.2,36.682,4.848,12.182,5.956-9.966Z" transform="translate(-214.589 -151.793)"/><path class="d" d="M263.971,250.065s-16.219-9.795-17.661-11.074-1.451-.324-2.577.315-5.3,5.623-6.1,7.209-2.091,3.857-.478,4.181,2.892-2.7,2.892-3.217,2.406-3.208,2.406-3.208-2.406,5.776-1.6,6.262,6.262,2.7,7.389,2.7,1.919-2.091,1.919-2.091,1.613,2.091,3.217,1.928a6.226,6.226,0,0,0,2.7-.964l5.461,4.334Z" transform="translate(-213.903 -154.181)"/><path class="d" d="M266.224,251.037s-2.018-1.216-4.686-2.847l-2.379,5.578,4.658,3.694Z" transform="translate(-216.156 -155.153)"/><path class="g" d="M243.64,252.258s.487-5.145,2.577-8.038" transform="translate(-214.621 -154.761)"/><path class="g" d="M246.67,253.074s1.126-4.505,3.379-7.064" transform="translate(-214.92 -154.938)"/><path class="d" d="M278.746,209.192a23.851,23.851,0,0,0-7.551,13l10.119,28.762s-12.047-4.983-13.516-5.136-6.587,6.9-5.136,8.506,29.735,17.508,31.474,15.417-7.209-58.939-8.191-61.029-.315-3.208-3.694-3.694" transform="translate(-216.477 -150.882)"/><path class="w" d="M283.39,256s5.785,1.289,7.389,4.334" transform="translate(-218.553 -155.926)"/><path class="e" d="M211.616,229.515l12.9,28.834a1.3,1.3,0,0,0,.658.64l18.463,7.569a1.234,1.234,0,0,0,1.649-1.55l-10.335-27.933a3.6,3.6,0,0,0-2.145-2.136l-19.625-7.109a1.234,1.234,0,0,0-1.568,1.685Z" transform="translate(-211.44 -153.13)"/><path class="d" d="M216.844,246.767a1.18,1.18,0,0,0-1.415,1.261,1.6,1.6,0,0,0,.441,1.117c.712.5,6.055.9,5.848-.108C221.584,248.254,218.826,247.155,216.844,246.767Z" transform="translate(-211.829 -155.01)"/><path class="d" d="M214.964,244.607a1.406,1.406,0,0,0-1.685,1.5,1.874,1.874,0,0,0,.532,1.325c.838.595,7.209,1.072,6.938-.126C220.56,246.373,217.289,245.066,214.964,244.607Z" transform="translate(-211.616 -154.796)"/><path class="d" d="M214.392,241.427a1.532,1.532,0,0,0-1.8,1.631,2.054,2.054,0,0,0,.577,1.442c.9.649,7.8,1.171,7.542-.126C220.483,243.356,216.924,241.941,214.392,241.427Z" transform="translate(-211.548 -154.482)"/><path class="d" d="M213.242,238.4a1.532,1.532,0,0,0-1.8,1.631,1.973,1.973,0,0,0,.577,1.442c.9.649,7.8,1.171,7.542-.126C219.324,240.326,215.774,238.938,213.242,238.4Z" transform="translate(-211.434 -154.182)"/><path class="r" d="M240.33,166.4s1.081,11.029,3.5,16.138,3.226,7.524,5.65,7.524,6.992-3.5,9.137-6.722a52.44,52.44,0,0,0,2.965-4.839l.532-1.343s3.766-2.7,4.577-4.568-.811-3.226-3.766-1.613c0,0,1.072-8.335-1.081-13.444S243.294,157.262,240.33,166.4Z" transform="translate(-214.293 -145.979)"/><path class="d" d="M237.08,172.25l18.165,3.7s.126,2.82-1.8,3.712a5.487,5.487,0,0,1-5.758-.9,5.669,5.669,0,0,1-1.406-3.712s-1.153-.9-1.28,0a3.469,3.469,0,0,1-3.55,2.937,4.271,4.271,0,0,1-3.821-2.847,10.884,10.884,0,0,1-.55-2.892Z" transform="translate(-213.972 -147.64)"/><line class="g" y1="3.965" x2="7.551" transform="translate(41.274 24.348)"/><line class="g" y1="1.153" x2="2.937" transform="translate(23.108 23.456)"/><path class="d" d="M245.88,176.22l-1.28,4.74,1.541.378.378,3.712,2.433-.64" transform="translate(-214.716 -148.033)"/><path class="q" d="M247.689,147.616s-10.759,8.335-11.831,13.444,5.911,7.263,10.488,6.452S257.6,162.4,257.6,162.4s-3.766,5.92-.811,6.181a14.126,14.126,0,0,0,4.037,0s-1.613,3.235-.27,3.235,1.883-1.883,1.883-1.883,3.766-8.875,2.7-16.94S254.131,142.507,247.689,147.616Z" transform="translate(-213.84 -144.938)"/></g></g></svg>