<svg xmlns="http://www.w3.org/2000/svg" width="49.749" height="24" viewBox="0 0 49.749 24"><defs><style>.a{fill:red;}</style></defs><g transform="translate(0)"><path class="a" d="M21.2,186.8H33v24H21.2Zm37.945,0h11.8v24h-11.8Zm-14.689,5.027,1.7-3.41,1.617,3.279c.219.35.393.306.7.175l1.443-.7L49,195.762c-.175.918.306,1.18.874.568l2.055-2.186.525,1.224c.175.393.437.306.831.262l2.1-.437-.7,2.667v.044c-.087.35-.262.656.131.831l.743.393L51.189,202.8c-.437.437-.306.612-.131,1.093l.393,1.224-4.066-.743c-.481-.131-.831-.131-.874.262l.175,4.678H45.462l.175-4.634c0-.437-.35-.437-1.18-.262l-3.76.743.481-1.224c.175-.481.219-.787-.175-1.093l-4.372-3.716.831-.481c.219-.175.262-.393.131-.787l-.831-2.71,2.142.437c.612.131.743,0,.918-.306l.612-1.224,2.1,2.361c.393.437.918.175.743-.481l-1.005-4.984,1.574.918c.262.175.525.175.656-.087" transform="translate(-21.2 -186.8)"/></g></svg>