<svg xmlns="http://www.w3.org/2000/svg" width="296" height="310.923" viewBox="0 0 296 310.923"><defs><style>.a,.q{fill:#1a73e8;}.b,.k,.l,.m{fill:#fff;}.b{opacity:0.75;}.c,.d,.f,.h,.i,.o,.p,.r{fill:none;}.c,.l,.n,.o,.q{stroke:#19334d;}.c,.d,.f,.h{stroke-miterlimit:10;}.d,.m,.p,.s{stroke:#263238;}.e,.n{fill:#19334d;}.f{stroke:#1a73e8;}.g{fill:#8595a5;}.h,.i{stroke:#fff;}.i,.l,.m,.n,.o,.p,.q,.r,.s{stroke-linecap:round;stroke-linejoin:round;}.j{fill:gray;}.k{opacity:0.5;}.r{stroke:#8595a5;}.s{fill:#263238;}</style></defs><g transform="translate(-13.274 -8.365)"><g transform="translate(13.274 8.365)"><path class="a" d="M143.61,8.826s53.586-6.816,96.253,32S294.937,140.9,306.308,190.283s-10.752,92.252-52.549,104.873-60.454-23.54-112.4-36.424S73.719,250.221,36.8,211.214,7.3,100.749,52.775,56.633,143.61,8.826,143.61,8.826Z" transform="translate(-13.274 -8.365)"/><path class="b" d="M143.61,8.826s53.586-6.816,96.253,32S294.937,140.9,306.308,190.283s-10.752,92.252-52.549,104.873-60.454-23.54-112.4-36.424S73.719,250.221,36.8,211.214,7.3,100.749,52.775,56.633,143.61,8.826,143.61,8.826Z" transform="translate(-13.274 -8.365)"/></g><g transform="translate(33.068 176.316)"><line class="c" x1="263.756" y1="18.579" transform="translate(2.062 28.887)"/><line class="d" y1="29.679" transform="translate(15.597)"/><line class="d" y1="28.887" transform="translate(40.528 2.377)"/><line class="d" y1="29.673" transform="translate(69.415 3.962)"/><line class="c" y1="31.264" transform="translate(101.471 4.748)"/><line class="c" y1="33.242" transform="translate(134.706 4.748)"/><line class="c" y1="31.657" transform="translate(167.948 7.917)"/><line class="c" y1="34.208" transform="translate(203.374 9.895)"/><line class="c" y1="32.842" transform="translate(243.528 12.665)"/><line class="c" x1="264.607" y1="19.636" transform="translate(1.211 32.456)"/><line class="c" x2="7.905" y2="0.921" transform="translate(257.514 129.81)"/><line class="c" x2="248.675" y2="28.971" transform="translate(0 99.809)"/></g><g transform="translate(42.487 19.823)"><path class="e" d="M316.553,188.841,58.62,177.78V37.211L316.553,26.15Z" transform="translate(-58.62 -26.15)"/><path class="f" d="M312.828,185.412,66.04,175.794V47.665L312.828,38.04Z" transform="translate(-61.26 -30.38)"/><path class="g" d="M151.135,71.709,82.848,73.642a3.028,3.028,0,0,1-2.931-3.221h0a3.239,3.239,0,0,1,2.931-3.4l68.287-2.235a3.221,3.221,0,0,1,3.189,3.356h0A3.447,3.447,0,0,1,151.135,71.709Z" transform="translate(-66.195 -39.897)"/><path class="a" d="M110.128,70.35a3.079,3.079,0,0,0-3.028-3.26l-24.242.792a3.258,3.258,0,0,0-2.931,3.4A3.028,3.028,0,0,0,82.858,74.5l24.242-.7a3.311,3.311,0,0,0,3.028-3.447Z" transform="translate(-66.198 -40.716)"/><path class="g" d="M151.136,92.607,82.849,94.031a3.044,3.044,0,0,1-2.931-3.221h0a3.221,3.221,0,0,1,2.931-3.369l68.287-1.7a3.221,3.221,0,0,1,3.189,3.363h0a3.414,3.414,0,0,1-3.189,3.5Z" transform="translate(-66.196 -47.351)"/><path class="a" d="M127.225,90.078h0a3.15,3.15,0,0,0-3.086-3.318l-41.23,1.031a3.221,3.221,0,0,0-2.931,3.369h0a3.013,3.013,0,0,0,2.931,3.221l41.262-.863a3.324,3.324,0,0,0,3.054-3.44Z" transform="translate(-66.217 -47.714)"/><path class="g" d="M151.135,113.46l-68.287.9a3.079,3.079,0,0,1-2.931-3.26h0a3.221,3.221,0,0,1,2.931-3.343l68.287-1.172a3.26,3.26,0,0,1,3.189,3.4h0a3.376,3.376,0,0,1-3.189,3.485Z" transform="translate(-66.195 -54.765)"/><path class="a" d="M139.24,110.343a3.221,3.221,0,0,0-3.131-3.363l-53.251.915a3.221,3.221,0,0,0-2.931,3.344,3.079,3.079,0,0,0,2.931,3.26l53.251-.7A3.343,3.343,0,0,0,139.24,110.343Z" transform="translate(-66.199 -54.908)"/><path class="a" d="M151.136,134.327l-68.287.361a3.105,3.105,0,0,1-2.931-3.279h0a3.163,3.163,0,0,1,2.931-3.324l68.287-.644a3.286,3.286,0,0,1,3.189,3.414h0A3.35,3.35,0,0,1,151.136,134.327Z" transform="translate(-66.195 -62.187)"/><path class="a" d="M210.154,70.932,200.8,71.2a3.221,3.221,0,0,1-3.221-3.356h0A3.472,3.472,0,0,1,200.8,64.29l9.354-.29a3.221,3.221,0,0,1,3.253,3.376h0A3.492,3.492,0,0,1,210.154,70.932Z" transform="translate(-108.058 -39.616)"/><path class="a" d="M210.153,92l-9.354.193a3.221,3.221,0,0,1-3.221-3.382h0a3.44,3.44,0,0,1,3.221-3.53l9.354-.232a3.273,3.273,0,0,1,3.253,3.4h0A3.459,3.459,0,0,1,210.153,92Z" transform="translate(-108.057 -47.105)"/><path class="a" d="M210.154,113.071l-9.354.122a3.279,3.279,0,0,1-3.221-3.408h0a3.408,3.408,0,0,1,3.221-3.5l9.354-.161a3.311,3.311,0,0,1,3.253,3.427h0A3.421,3.421,0,0,1,210.154,113.071Z" transform="translate(-108.058 -54.602)"/><path class="a" d="M210.154,134.161l-9.354.045a3.311,3.311,0,0,1-3.221-3.434h0a3.376,3.376,0,0,1,3.221-3.479l9.354-.084a3.331,3.331,0,0,1,3.253,3.447h0A3.4,3.4,0,0,1,210.154,134.161Z" transform="translate(-108.058 -62.105)"/><line class="h" y1="0.38" x2="10.99" transform="translate(17.194 23.321)"/><line class="h" y1="0.29" x2="10.99" transform="translate(17.194 36.952)"/><line class="h" y1="0.206" x2="10.99" transform="translate(17.194 49.888)"/><line class="h" y1="0.116" x2="10.99" transform="translate(17.194 63.52)"/><line class="h" y1="0.283" x2="9.212" transform="translate(220.504 23.785)"/><line class="h" y1="0.387" x2="14.566" transform="translate(215.15 31.618)"/><line class="h" y1="0.206" x2="9.212" transform="translate(220.504 39.446)"/><line class="h" y1="0.097" x2="5.405" transform="translate(224.311 47.279)"/><line class="h" y1="0.129" x2="9.212" transform="translate(220.504 55.113)"/><line class="h" y1="0.116" x2="11.673" transform="translate(218.043 62.94)"/><line class="h" y1="0.052" x2="9.212" transform="translate(220.504 70.774)"/><line class="h" y1="0.019" x2="13.677" transform="translate(216.039 78.608)"/><line class="h" x2="9.212" y2="0.026" transform="translate(220.504 86.409)"/><path class="h" d="M419,62.954l2.8-.084" transform="translate(-186.836 -39.214)"/><path class="h" d="M419,75.087l2.8-.077" transform="translate(-186.836 -43.533)"/><path class="h" d="M419,87.264l2.8-.064" transform="translate(-186.836 -47.87)"/><path class="h" d="M419.07,99.442l2.719-.052" transform="translate(-186.861 -52.207)"/><path class="h" d="M419,111.619l2.8-.039" transform="translate(-186.836 -56.544)"/><path class="h" d="M419,123.82h2.738" transform="translate(-186.836 -60.899)"/><path class="h" d="M419,136h2.8" transform="translate(-186.836 -65.232)"/><path class="h" d="M418.92,148.16h2.815" transform="translate(-186.808 -69.559)"/><path class="h" d="M419,160.33h2.8" transform="translate(-186.836 -73.889)"/><path class="h" d="M427.53,62.608l4.787-.148" transform="translate(-189.871 -39.068)"/><path class="h" d="M427.53,74.829l4.787-.129" transform="translate(-189.871 -43.423)"/><path class="h" d="M427.53,87.05l4.787-.11" transform="translate(-189.871 -47.778)"/><path class="h" d="M427.72,99.264l4.664-.084" transform="translate(-189.938 -52.133)"/><path class="h" d="M427.53,111.484l4.787-.064" transform="translate(-189.871 -56.487)"/><path class="h" d="M427.69,123.705l4.683-.045" transform="translate(-189.928 -60.842)"/><path class="h" d="M427.53,135.94h4.787" transform="translate(-189.871 -65.211)"/><path class="h" d="M427.47,148.15h4.851" transform="translate(-189.85 -69.555)"/><path class="h" d="M427.53,160.36h4.787" transform="translate(-189.871 -73.899)"/><line class="h" y1="0.064" x2="93.682" transform="translate(114.974 80.096)"/><line class="h" y1="0.387" x2="93.682" transform="translate(114.974 73.815)"/><line class="h" y1="0.702" x2="93.682" transform="translate(114.974 67.534)"/><path class="a" d="M330.213,152.765V124.419s-2.2-2.789-11.261-2.274c-8.968.515-11.119,8.439-20.615,13.052s-13.864-2.828-21.594-2.789S265.243,141,259.7,144.242s-10.423-.419-17.014.374a9.367,9.367,0,0,0-7.963,6.777l-.09.8Z" transform="translate(-121.241 -60.28)"/><path class="g" d="M334.849,161.1V145.536c-3.1-.167-9.528.348-16.357,6.036s-19.011,2.686-22.593,1.379a20.5,20.5,0,0,0-18.74,1.933c-6.5,4.123-11.783,3.724-17.806,3.691a46.475,46.475,0,0,0-11.693,2Z" transform="translate(-125.877 -68.616)"/><path class="g" d="M261.007,234.67l-16.666-.522a3.015,3.015,0,0,1-2.822-3.073h0a2.809,2.809,0,0,1,2.822-2.905l16.666.457a3.06,3.06,0,0,1,2.886,3.105h0a2.86,2.86,0,0,1-2.886,2.938Z" transform="translate(-123.691 -98.025)"/><path class="g" d="M312.828,236.219l-17.3-.535a3.105,3.105,0,0,1-2.925-3.137h0a2.886,2.886,0,0,1,2.925-2.957l17.3.477a3.144,3.144,0,0,1,3,3.163h0a2.931,2.931,0,0,1-3,2.989Z" transform="translate(-141.865 -98.53)"/><path class="g" d="M365.5,237.786l-17.961-.56A3.182,3.182,0,0,1,344.51,234h0a2.963,2.963,0,0,1,3.034-3.015l17.961.5a3.221,3.221,0,0,1,3.105,3.221h0a3.015,3.015,0,0,1-3.105,3.079Z" transform="translate(-160.334 -99.028)"/><line class="h" x2="92.394" y2="2.184" transform="translate(13.612 120.476)"/><line class="h" x2="92.394" y2="1.913" transform="translate(13.612 115.573)"/><line class="h" x2="92.394" y2="1.636" transform="translate(13.612 110.671)"/><line class="h" x2="92.394" y2="1.366" transform="translate(13.612 105.762)"/><line class="h" x2="92.394" y2="1.095" transform="translate(13.612 100.859)"/><line class="h" x2="92.394" y2="0.818" transform="translate(13.612 95.957)"/><line class="h" x2="92.394" y2="0.541" transform="translate(13.612 91.054)"/><line class="h" x2="92.394" y2="0.271" transform="translate(13.612 86.152)"/><path class="g" d="M92.162,210.931l-8.852-.238V191.25l8.852.135Z" transform="translate(-67.404 -84.889)"/><path class="a" d="M111.577,208.338l-8.987-.238V183.02l8.987.109Z" transform="translate(-74.264 -81.961)"/><path class="g" d="M131.292,206.384l-9.122-.245V176.57l9.122.09Z" transform="translate(-81.23 -79.666)"/><path class="a" d="M151.3,199.958l-9.264-.245V157.53l9.264.019Z" transform="translate(-88.299 -72.892)"/><path class="g" d="M171.626,207.218l-9.406-.251V176.94l9.406.09Z" transform="translate(-95.479 -79.798)"/><path class="a" d="M192.264,212.859l-9.554-.258V191.78l9.554.142Z" transform="translate(-102.769 -85.078)"/><path class="g" d="M213.228,217.88l-9.708-.258V204.88l9.708.187Z" transform="translate(-110.173 -89.739)"/><line class="i" x2="7.202" y2="0.213" transform="translate(16.325 130.712)"/><line class="i" x2="7.312" y2="0.219" transform="translate(28.835 131.086)"/><line class="i" x2="7.428" y2="0.219" transform="translate(41.533 131.466)"/><line class="i" x2="7.537" y2="0.225" transform="translate(54.43 131.846)"/><line class="i" x2="7.653" y2="0.225" transform="translate(67.527 132.239)"/><line class="i" x2="7.776" y2="0.232" transform="translate(80.824 132.638)"/><line class="i" x2="7.898" y2="0.238" transform="translate(94.333 133.038)"/><path class="a" d="M394.37,178.5V173.87l12.569.1v4.651Z" transform="translate(-178.073 -78.706)"/><path class="g" d="M394.37,188.539V183.92l16.118.174v4.664Z" transform="translate(-178.073 -82.281)"/><path class="a" d="M394.37,198.579V193.96l18.895.271V198.9Z" transform="translate(-178.073 -85.853)"/><path class="g" d="M394.37,208.625V204l26.864.483v4.69Z" transform="translate(-178.073 -89.425)"/><path class="a" d="M394.37,218.669V214.05l18.895.4v4.671Z" transform="translate(-178.073 -93.001)"/><path class="g" d="M394.37,228.709V224.09l12.962.322v4.651Z" transform="translate(-178.073 -96.573)"/><path class="a" d="M394.37,238.755V234.13l7.847.225v4.638Z" transform="translate(-178.073 -100.145)"/><path class="g" d="M264.447,191.226c0,7.859-6.069,14.076-13.5,13.889s-13.29-6.6-13.29-14.34,5.927-13.96,13.29-13.9S264.447,183.4,264.447,191.226Z" transform="translate(-122.319 -79.776)"/><path class="a" d="M251.584,176.918c-.213,0-.419-.039-.644-.039-7.363-.064-13.29,6.159-13.29,13.9s5.927,14.173,13.29,14.34h.644Z" transform="translate(-122.315 -79.776)"/><path class="e" d="M262.5,193.545a9.312,9.312,0,0,1-9.3,9.592A9.673,9.673,0,0,1,244,193.262a9.317,9.317,0,0,1,9.2-9.592A9.725,9.725,0,0,1,262.5,193.545Z" transform="translate(-124.575 -82.192)"/><path class="a" d="M315.652,191.913a13.847,13.847,0,0,1-14,14.141,14.409,14.409,0,0,1-13.793-14.611,13.907,13.907,0,0,1,13.793-14.173C309.3,177.315,315.652,183.925,315.652,191.913Z" transform="translate(-140.179 -79.915)"/><path class="e" d="M313.579,194.339a9.567,9.567,0,0,1-9.663,9.766,9.968,9.968,0,0,1-9.547-10.089,9.567,9.567,0,0,1,9.547-9.766A9.963,9.963,0,0,1,313.579,194.339Z" transform="translate(-142.494 -82.399)"/><path class="g" d="M368.694,192.7a14.244,14.244,0,0,1-14.54,14.411,14.856,14.856,0,0,1-14.315-14.894,14.257,14.257,0,0,1,14.315-14.411A14.817,14.817,0,0,1,368.694,192.7Z" transform="translate(-158.672 -80.108)"/><path class="a" d="M354.843,177.849c-.232,0-.457-.039-.689-.039a14.257,14.257,0,0,0-14.315,14.411,14.856,14.856,0,0,0,14.315,14.894h.689Z" transform="translate(-158.672 -80.108)"/><path class="e" d="M366.605,195.121a9.837,9.837,0,0,1-10.018,9.953,10.256,10.256,0,0,1-9.908-10.307,9.844,9.844,0,0,1,9.908-9.947A10.237,10.237,0,0,1,366.605,195.121Z" transform="translate(-161.106 -82.602)"/><line class="h" x2="6.12" y2="0.11" transform="translate(125.771 111.882)"/><line class="h" x2="6.352" y2="0.11" transform="translate(158.6 112.449)"/><line class="h" x2="6.59" y2="0.116" transform="translate(192.055 113.028)"/><path class="g" d="M305.2,83.11l.045-.49-.142.142.1.348Z" transform="translate(-146.313 -46.241)"/><path class="g" d="M275.59,94.3l.329.052.754-.232-1.082-.348.148.354-.438.1.29.071Z" transform="translate(-135.71 -50.208)"/><path class="g" d="M272.545,89.879l-1.662-.644-.3.174.045-.251L270.1,88.8l-.612.258.2-.3-.457-.129-.148.206.283-.548-.348-.767-.393-.341-.876-.116h0l-.644-.644h-.329l.058-.213-.335-.135v-.148l-.187-.058-.438.187-.722-.187-.367-.341-.064.167-.309.213.077.374-.238-.084.1-.341-.032-.18.058-.052.058-.161-.644.354h-.11l-.515.78h-.045l-.142-.206-.316-.161-.322.142h-.361l-.367-.483.135-1.076-.251-.2h-.9l-.09-.058.135-.567h.045l.264-.863H260.4l-.5.78-.7.122-.258-.135-.367-.593v-1.4l-.09-.039.09.039-.064-.329.058-.251.767-.6.747.167.1-.09.2.155-.1-.271.354-.168.09.071.3-.052.213.167h.155l.213-.084.567,1.288h.174l.1-.309-.316-1.288,1.024-1.153v-.168l.058-.1h.155l.058-.155-.155-.264v-.122l-.148-.219.09-.09v-.341h.077l.039.56.1-.077.045-.451h.161l.116-.329.457-.187h-.341l.361-.142.116-.11h.187l-.058-.2.174-.419.3-.29h.283l.644-.5v.11l.206.084-.457.238v.29l.3-.071.213-.219.522-.174.1-.026.3-.135-.084-.1v-.18l-.367.374-.4-.071-.245-.219v-.271l-.1-.084v-.1l.225-.335-.979.206-.5.5.567-.747.238-.084.167-.232,1.417-.122,1.031-.644v-.11l-.064-.071.077-.142-.122-.2-.238.045v-.213l-.573.225-.052-.1.586-.277-1.1-.7v-.071l.18-.116-.709-1.288-.206.271-.077.3-.077.1h-.135l-.225.161-.374-.329-.1-.451.077-.225-.515-.161-.47-.425-.225.09-.689-.09-.1.193.148.174-.122.251.155.38-.225.554.335.3.052.567-.354.387-.316.142.18.818-.045.219.032.129h-.1l-.122.167-.187-.077-.4-.58v-.6l-.129-.161-1.868-.734L259.59,72v-.129l-.264-.541-.245-.064.142-.921.767-.818-.683-.3.78.129.058-.225.329.052.322-.387-.567-.264v-.142l.451.238.335-.29-.129-.148.174-.09.148.116h.238l-.122-.18.039-.071.232.084h.193l.335-.283-.187-.464v-.11l.225-.1-.135-.264-.779-.232v.245l.071.129-.039.116-.148.116-.11.264-.1-.161-.032.206.084.155-.155.135-.277-.38.1-.116v-.161l-.148-.174-.213-.052-.187.4-.071-.309.084-.213-.225-.1-.167.052v-.219l.129-.058-.335-.3v-.225l-.29-.225-.052-.11.161-.142.052-.258h.348l.329-.522-.606-.187-.47.1.064.155h-.148l.122.883-.135.155.071.148h-.187v.7l.451.174-.077.341.11-.1.1.142-.374.271v.251l-.122.1-.116-.206v-.2l-.258-.077.168-.039.116-.1.258-.032-.122-.219h-.18l.187-.045-.387-.142-.483.258.367.271-.193.142V67.6l-1.237-.064-.2-.11-.116-.2h-.367l-.329.18.1.1.5-.193-.367.232V68.1l-.142-.064v-.213l-1.553-.1.251-.206-.084-.193-1.449-.38-.76.155v-.167l-.071-.2-.3.374-.335-.5-.135.052-.245.322-.921.477.052-.142.786-.5H251.1l-.76.367-.167-.09-.3.264.09.148-3.749-.734-.071-.129h-.38l-.109-.1-.283.077.084-.116-.174-.09-.786.348.052.135-.49.064-.258.258-.09.277-.56.142-.058.167.606.606h.374l.071.219.238.052-.734.155v-.129h-.277l-.122.155h-.193l-.3.206.322.142-.045.122.168.187h.644l.393-.174-.064.18v.341l-.271.032-.116.213-.225-.052-.09.264-.219.193-.109.232.2.148v.245l.271.3.264-.058.109-.11.071.548h.683l.09-.135h.238l-.071.535-.644.644-.341.052-.161.283,2.107-1.54-.174-.1.78-.857.135.058v.1l-.225.058-.09.238v.187l-.077.116.09.084.438-.29h.316V71.1l-.1-.148.071-.129.457.09-.1.09v.09l.309-.071.045.045.734.058.2.148.271-.11-.045.161.644.464.129-.129.18.1v-.219h.084v.335l-.168-.039-.148.052.354.567v-.451l.032.18.129-.09v-.187l.129.174-.071.18-.122.071v.271l.09-.1.142-.039.193.167-.09-.122v-.142l.168.251-.11.135-.193-.1.032.451.077-.09.122.052.052-.148.11.045.1-.064v.18h.1l.1.129-.064.11.039.193h.193l.052.148.277.213.052.4.586.264.084.155.3.1.193.271.039.264-.071.264-.1-.38V75.1l-.644-.56-.528-.1.709.644.316.741.032,2.448.747,1.243.464.167.953,1.746h-.18l.522.4.064.322.5.586.11-.084-.045-.206-.193-.09-.644-1.25v-.135l-.174-.084-.2-.58h.084l.341.129.084.644,1.662,2.087v.193l-.071.09.18.322,1.63.85h.863l.238.213h0l.251.238.754.225.077-.039h.064l.058.193.348.4v.1l.058.225.129-.032.9.644.174-.058L262.2,86.6l.116-.129.251-.1.271.522.039.973-.348.457v.032l-.155.1-.135.85.135.135h.11l-.1.161h0l-.187.225.09.354-.071.071,1.2,2.293,1.288.966-.934,7.086.1.174.1-.47.084-.1.058.1-.084,1.1-.116.077v.167l-.142-.064.1-.174-.116-.187.071.206-.251.174v.122l-.142.161h.29v.129l-.071.161h.213v.1h-.283l-.155.142.084.116.116-.084h.09l-.232.271.1.187.168-.225-.064.38-.135.168v.245l.232-.039.045.09-.1.122h.213l.142.058-.2.1-.064.155.168-.064h.348l-.412.174v.052l.464-.155-.29.238h-.238v.174l.341.116-.039-.09.464-.509-.064.277h.206l-.129.116v.18l-.1-.213-.045.161-.109-.045-.174.206.168.039.11.232.084-.206.161.238.077-.09.238.193v-.174l.7-.129-.709-.535v-.11l-.084-.142h0l-.2-.1v-.039h.213l-.142-.438.045-.238.683-.837.045-.258-.225-.064-.161-.393.374-.251.277-.773.129.084.09-.2-.161.045-.122-.064-.045-.438.361.1.264-.155v-.432l.084-.1.58-.045.432-.251.206-.341-.419-.728h.077l.387.129.515-.058.7-1.288v.329l.522-.792.135-.96.889-.644.586-.077.644-1.385.058-1.288.045-.077.142.045.715-1.121-.045-.754-.2-.148Zm-7.531,14.888Z" transform="translate(-124.13 -39.798)"/><path class="g" d="M274.083,93.307l-1.514-.767-.8.341.387-.213,1.082.47.11.206.734-.039Z" transform="translate(-134.455 -49.77)"/><path class="j" d="M273.91,94.54l.464.084-.464-.084Z" transform="translate(-135.216 -50.482)"/><path class="j" d="M277.91,94.493l.374-.013-.374.013Z" transform="translate(-136.639 -50.46)"/><path class="j" d="M269.35,102.11l.142.264-.142-.264Z" transform="translate(-133.594 -53.175)"/><path class="g" d="M287.572,62.792l-.908-.019.1-.419.831.29.077-.348-.593-.586.335.039.219-.277-.548.006-.1-.167.09-.219.5.155.387-.116-.3-.316.509-.071.058-.18-.412-.283.4-.09-.109-.477-.406-.1-.167-.2.934-.077-.142-.271-.38-.084.316-.084-.644-.084.142-.49.786-.644-.155-.2-.38.148.309-.225.58-.116-.425-.1,1.424-.67-.786-.225-.464.264-.47.045-.2-.077-.837.651.38-.554-.142-.374-1.024.509.477-.354-1.72.161,2.59-.631-3.627-.457-.387.238-1.72.077.225.232-.406.148.58.4-1.411-.387.277.354-.316.026-.419-.245-.019.329-.187.187-.122-.528-1.623.477.064.393-.432-.064-1.024.676.554.077-.187.483-1.572.58.135.193,1.34.283-1.16.206.406.11.006.206.271.161,1.166-.142,1.1.457.8,1.295-.116.329.109.348.341-.18.084.258.432.225-.09.11-.606-.032.612.3.2.264-.045.361-.29.026-.367.58.219.219-.174.238.316.367.039.445.535.921,1.4.85.168-.206.1-.825.38-.515.006-.187.09-.122-.045-.193.032-.1.535-.464.11-.006.052.135.425-.116.786-.844,2.248-.96.084-.135Z" transform="translate(-135.942 -36.585)"/><path class="g" d="M282.957,67.454l-.18-.187-.445-.077-.032.225.251.161.406-.122Z" transform="translate(-138.201 -40.751)"/><path class="g" d="M268.538,63.266l.631.2.161-.084,1.849.019.2-.419L269.1,62.86l.071-.245-1.082-.335-.567.11,1.011.477.006.4Z" transform="translate(-132.942 -39.004)"/><path class="j" d="M273.44,73.05l.032-.29-.032.29Z" transform="translate(-135.049 -42.733)"/><path class="g" d="M263.5,66.888l.316-.026-.754-.528-.155-1.314-.438.129.283.271-.309-.129-.238.006.148.625-.142.142-.167-.438-.419-.174.174.213-.264.032-.425-.251-.148.245-.167-.071.039-.3-.973.457-.064.18.193.341.528-.1-.586.283,1.417.238-1.23.258,1.314.58,1-.367,1.166.1-.148-.225-.174-.006.225-.174Z" transform="translate(-130.196 -39.979)"/><path class="j" d="M272.08,72.693l.38-.3-.38.3Z" transform="translate(-134.565 -42.601)"/><path class="g" d="M281.543,78.934l-.11-.084-.664,1.321.883-.032-.058.187.193-.1.425.1-.116-.367-.09-.058.013-.258-.38-.09-.1-.148-.174.013.019-.187.161-.3Z" transform="translate(-137.657 -44.9)"/><path class="j" d="M278.89,79.82l.625.225-.625-.225Z" transform="translate(-136.988 -45.245)"/><path class="g" d="M272.353,71.4l-1.031-.8-.251.18-.251.709.283-.019.116.206.38-.251.754-.026Z" transform="translate(-134.117 -41.964)"/><path class="j" d="M264.966,63.842l-.206-.122.206.122Z" transform="translate(-131.961 -39.517)"/><path class="g" d="M274.744,69.129l.032-.348-.29-.071-.206.406.464.013Z" transform="translate(-135.348 -41.292)"/><path class="g" d="M266.235,66l.4-.135.3-.644-.135-.026-.032.1-.277-.116.29-.283-.161-.238-.805.361.245.219-.445-.032.625.792Z" transform="translate(-132.263 -39.851)"/><path class="g" d="M258,66.334l1.688-1.276-.277-.277-1.044-.232-.7.148.1.238-.361.786.593.612Z" transform="translate(-129.346 -39.812)"/><path class="j" d="M269.769,61.68l-.219.206.219-.206Z" transform="translate(-133.665 -38.791)"/><path class="j" d="M259.69,63.571l.348-.271-.348.271Z" transform="translate(-130.157 -39.367)"/><path class="g" d="M254.87,78.25l.341.554-.11-.393-.232-.161Z" transform="translate(-128.442 -44.686)"/><path class="j" d="M268.367,61.58l-.657.161.657-.161Z" transform="translate(-133.01 -38.755)"/><path class="g" d="M274.091,65.857l-.341.019-1.024-.612-.251.225-.135-.052-.374.148.013-.438-.161-.3-.438.013-.483.232.071.38-.116.245.238.187-.38-.161-.052-.329.122-.374.225-.238-.889.283-.206.9.477.09-.052.116-.335.045,1.617.445.232-.122.509.064-.032-.161.052-.129.734.567-.225.225.354-.129.548.49v.451l.374-.045.348.187-.329.193-.573-.225-.058.438-.831.219-.129.329,1.057-.077.264.258.129.329,1.243.47-.593-.67.953.084-.722-1.024.064-.29.322.116.329.361.47-.238.3-.341-1.559-1.024.309-.09-.258-.142.129-.122-.122-.213-.161.1.039-.206-.509-.238-.29.077-.084-.077.193-.213Z" transform="translate(-133.793 -39.901)"/><path class="g" d="M273.06,64.78l.135.316.341.116.541-.122-.573-.3-.445-.006Z" transform="translate(-134.913 -39.894)"/><path class="g" d="M262.5,61.607l-.135-.1-.567.225.3.219.406-.348Z" transform="translate(-130.907 -38.73)"/><path class="g" d="M264.628,60.561l.3.155-.354.077,1.3.232-.09-.283-.509-.348-.792-.1.148.271Z" transform="translate(-131.861 -38.296)"/><path class="j" d="M261.446,61.764l-.3-.064.3.064Z" transform="translate(-130.676 -38.798)"/><path class="j" d="M264.631,62.036l-.341-.3.341.3Z" transform="translate(-131.793 -38.812)"/><path class="g" d="M260.629,62.915l.032.174-.193.219.232-.006-.4.161.6.039.174-.084.432.019-.329.219-.013.238,1.617-.393.084-.535-.251.116-.412-.5-.238.29.019.174.168.187-1.282-.483-.238.167Z" transform="translate(-130.374 -39.111)"/><path class="g" d="M258.494,62.981l.335-.167.155.2.47-.567.064.232.387-.174v-.193l.142-.142-.18-.11-.135.1-.3-.019-1.024.7.084.142Z" transform="translate(-129.701 -38.926)"/><path class="g" d="M261.984,61.222l.651-.116-.49-.116-.425.219.264.013Z" transform="translate(-130.879 -38.545)"/><path class="g" d="M267.66,59.255l.219.271h.657l-.4.232.85.419.322-.026.457-.522.38-.161-.438-.271-.1-.238-1.469-.618.026.116-.341.245.039.283-.2.271Z" transform="translate(-132.992 -37.603)"/><path class="g" d="M267.32,61.231l.4-.1.019-.193-.709-.251.29.541Z" transform="translate(-132.768 -38.439)"/><path class="j" d="M266.663,59.746l-.3-.116.3.116Z" transform="translate(-132.53 -38.062)"/><path class="g" d="M268.077,63.51l-.567.277.676.161-.11-.438Z" transform="translate(-132.939 -39.442)"/><path class="g" d="M265.735,62.46l.071.3-.264-.071-.077.187-.135.019-.374-.38-.026.322.354.277.541-.032-.052.322.47.013.187-.219-.019-.258-.258-.387-.419-.09Z" transform="translate(-132.021 -39.068)"/><path class="g" d="M269.444,57.361l.129.032.09.1-.071.18.206.148.573.006.064.122,1.6-.3v.219l-.741.213.283.335-1.1-.277.013.412.857.593-.606-.116-.58.316h.535l-.045.161.258.335-.3-.026-.393-.219-.039.419-.457.277,2.545-.026.1-.232-.741-.077.006-.155.593-.039.039-.258.425-.045.451-.548-.606-.129.509-.167.283-.251.438.019,1.662-1.082-.676-.019,1.224-.412.064-.258-.612-.219-.515.1.09-.161-4.368.509-.367.283-.348-.045-.18.167-.483.064.174.052Z" transform="translate(-133.565 -36.887)"/><path class="j" d="M243.8,78.24l.3-.18-.3.18Z" transform="translate(-124.503 -44.619)"/><path class="g" d="M247.651,75.957l-.2.264-.161.077.1.193h.116l.29-.251-.084-.148.161-.09-.045-.122-.174.077Z" transform="translate(-125.745 -43.843)"/><path class="g" d="M243.16,74.97l-.2.084.309.1.045-.174-.155-.006Z" transform="translate(-124.205 -43.519)"/><path class="j" d="M303.02,84.29l-.2.084.2-.084Z" transform="translate(-145.502 -46.835)"/><path class="g" d="M310.851,86.115l-.509-.045-.142.071.341.09.309-.116Z" transform="translate(-148.127 -47.468)"/><path class="g" d="M313.736,86.109l.129-.168-.006-.052-.329.122-.11.187.316-.09Z" transform="translate(-149.273 -47.404)"/><path class="g" d="M295.341,70.306l.361-.374-.29-.5-.155.019-.219-.116-.026.161-.361.045-.116-.039-.155.122-.09-.052-.11.084-.026.122-.155.084-.058-.213L293.6,69.4l.032.148-.084-.006-.148.071-.116.174.5.052-.045.129-.38.161h.335l.148.18-.193.213.29-.019.419.174.992-.374Z" transform="translate(-142.107 -41.516)"/><path class="g" d="M298.442,77.63l.676-.271v-.651l.174-.129-.129-.29-.548.116.11.122-.187.11-.245.013.135.38-.064.219-.155.18.232.2Z" transform="translate(-143.861 -43.989)"/><path class="j" d="M299.558,74.4l-.148.238.148-.238Z" transform="translate(-144.288 -43.316)"/><path class="g" d="M299.56,74.648l.161.148-.084.193.122.142-.187.167.161-.071.1.155.129-.206.019.18-.084.264.335-.045.155.335-.019.238-.232.013-.071.045-.071.167.135.1-.219.18.09.11.374.064.019.064-.251.045-.3.419.174-.116.168.039.1-.122.348-.09.18.045.58-.225-.1-.052.019-.155.187-.258-.354-.142v-.142l-.554-.9-.213-.032.264-.638-.432-.006-.077-.084.174-.225.039-.155-.1.11-.251.013-.3.477-.135-.052Z" transform="translate(-144.342 -43.21)"/><path class="g" d="M306.084,76.152l.167-.219.058-.283-.077.064-.077-.064-.155.084.09.232-.064.077.058.11Z" transform="translate(-146.633 -43.761)"/><path class="j" d="M308.525,74.48l-.155.348.155-.348Z" transform="translate(-147.476 -43.345)"/><path class="j" d="M309.958,73.79l-.148.019.148-.019Z" transform="translate(-147.988 -43.099)"/><path class="g" d="M309.74,74.2l.238-.187-.148-.045-.09.232Z" transform="translate(-147.964 -43.163)"/><path class="g" d="M308.39,58.079h.844l-.483.2.818.161.883-.548-.805-.11-.129.077-.129-.167-.045.258-.18-.11-.193-.006-.251-.155.013.116-.168-.045.006.148-.174-.135-.1.1.116.11-.026.1Z" transform="translate(-147.451 -37.368)"/><path class="g" d="M305.872,59.565l.161.122-.3-.348.142.225Z" transform="translate(-146.537 -37.958)"/><path class="g" d="M306.145,58.658l-.135.258.232.283.329.013.245-.329.019.161.2-.032.09.084-.638.3.206.09.464-.039-.638.232.232.2.225.019-.11.1.187.122.155-.058.541-1.031.283-.1.045.058.032.2.084.09-.039.251.219.045.129.129.49-.322-.354-.09-.039-.1-.18-.071-.129-.142-.045-.148-.593-.206-.09-.2-.187.1.058-.187-.238-.09-.122-.116-.09.251.142.393-.412-.451-.09.213-.064.052-.174-.155.193-.09-.129-.045-.361.032-.187.1v.264l.245-.032Z" transform="translate(-146.597 -37.528)"/><path class="g" d="M352.895,80.979l-.2.1-.135.316V81.6l.251-.09-.142-.193.56.058.5-.258.393-.47-.464.148-.522-.412-.155.084-.084.515Z" transform="translate(-163.198 -45.444)"/><path class="g" d="M348.813,86.234l-.1.187.135-.077.129.586.264-.457-.052-.167-.161-.135-.213.064Z" transform="translate(-161.828 -47.504)"/><path class="g" d="M350.561,83.891l-.148.271-.786.135-.367.316v.161l.857-.258.1.232.277-.019.084-.187.077-.039.477-.019.142-.161.225-.045.122-.792.219-.3-.116-.709-.3.1-.161.715-.367.457-.155-.084-.18.219Z" transform="translate(-162.024 -46.191)"/><path class="g" d="M349.939,86.241l.206-.1.161-.238-.238-.026-.225.077-.032.354.129-.071Z" transform="translate(-162.22 -47.401)"/><path class="g" d="M345.289,90.961l.3-.831-.425.38.129.451Z" transform="translate(-160.565 -48.913)"/><path class="g" d="M341.319,92.795l.122-.322-.29-.013-.232.367.4-.032Z" transform="translate(-159.057 -49.742)"/><path class="g" d="M346.66,96.86l-.277.264-.206-.052-.277.187-.09.277.387-.206.193.457.251.135-.013-.341.258-.122-.058-.586-.167-.013Z" transform="translate(-160.797 -51.307)"/><path class="g" d="M345.02,93.653l.129.567.747.38.284.683.187-.232-.064-.322-.432-.438-.329-.058-.122-.245.161-.38-.052-.522-.348-.026-.045.625-.116-.032Z" transform="translate(-160.515 -49.955)"/><path class="j" d="M345.23,95.22l.225.277-.225-.277Z" transform="translate(-160.59 -50.724)"/><path class="g" d="M344.383,96.486l-.3.445.432-.451.064-.29-.193.3Z" transform="translate(-160.181 -51.069)"/><path class="j" d="M346.674,96.66l-.174.129.174-.129Z" transform="translate(-161.042 -51.236)"/><path class="g" d="M346.181,96.139l-.361-.309.013.361.129-.077.052.5.258-.432-.09-.045Z" transform="translate(-160.8 -50.941)"/><path class="g" d="M356.439,102.6l-.29.2-.509.032.387.187.5-.283.071-.238-.155.1Z" transform="translate(-164.294 -53.314)"/><path class="g" d="M357.288,102.461l-.077-.271-.071.019.148.251Z" transform="translate(-164.828 -53.204)"/><path class="g" d="M353.127,102.44l-2.409-1.2-.6.5-.251-.657-.548-.071-.2.174.122.071.135.18.38.013-.019.084-.348.084.148.232,1.288.445.135.3-.006.238-.225.219.554-.045.509.309.432-.387.5.116.528.515.5.09-.039-.161-.412-.3-.225-.573.052-.174Z" transform="translate(-161.974 -52.784)"/><path class="g" d="M330.777,97.06l-.1.6.122.393.361-.387-.387-.606Z" transform="translate(-155.414 -51.378)"/><path class="g" d="M318.645,106.21l-.084.084-.032.187-.258.238-.006.142-.792.425-.213,2,.155.5.412.11.238-.1.7-2.609.142-.032-.258-.934Z" transform="translate(-150.639 -54.634)"/><path class="j" d="M320.98,96.038l.238-.058-.238.058Z" transform="translate(-151.963 -50.994)"/><path class="g" d="M354.626,118.872l-.406-.122.11.535.316.406.135-.1.052-.142.142.032.058-.7-.406.1Z" transform="translate(-163.789 -59.095)"/><path class="j" d="M348.81,105.684l.309-.084-.309.084Z" transform="translate(-161.864 -54.417)"/><path class="j" d="M351.13,116.415l.29-.045-.29.045Z" transform="translate(-162.689 -58.248)"/><path class="g" d="M352.165,110.009l-.071-.644-.522-.58-.084-.277-.1-.084-.135.013-.232-.573-.548-.354-.451-1.314-.187.006-.3-1.011-.155.193-.18,1.4L349,107.1l-1.134-.734.039-.354.155-.129.077-.18-.052-.129-.09.11-.09-.142-.18.09-.683-.3.09.174-.367.129-.335.522.013.225-.277.045-.412-.341-.135.09-.071.122-.187.013-.039.116-.116.09-.045.264-.174-.019.039.2-.077.142-.09-.2-.187.11-.013.309-.341.387-1.449.606-.129.193-.026-.161-.122.193-.032.728.135.354-.142-.135.071.187-.167-.142.651,1.7-.052.354-.135.225.064.174.174.167.457.045,3.163-1.1.709.271.013.161.213.225.058.3.638-.528-.251.593.219-.026.135-.077-.032.29.174-.013.329.709.728.3.3-.2.1.045.045.077.064-.052.238.225.335-.341.5-.1.883-2.938Z" transform="translate(-159.601 -54.271)"/><path class="j" d="M362.84,121.882l.09-.122-.09.122Z" transform="translate(-166.855 -60.166)"/><path class="g" d="M319.28,66.817l.438-.11-.213-.168-.225.277Z" transform="translate(-151.358 -40.52)"/><path class="g" d="M320.6,63.34l.039.193.09-.09.483.322.612-.019-.322-.309-.084-.567.664-1.037,2.442-1.353-2.893.941-.251.528-.2.122-.09.341-.374.258.077.18-.432.341.238.148Z" transform="translate(-151.742 -38.364)"/><path class="j" d="M334.856,56.29l-.316.058.316-.058Z" transform="translate(-156.787 -36.873)"/><path class="g" d="M353.522,62.5l-.309-.322-.393.219.7.1Z" transform="translate(-163.291 -38.969)"/><path class="j" d="M352.915,61.9l-.225.11.225-.11Z" transform="translate(-163.244 -38.869)"/><path class="g" d="M335.791,57.37l-.161.238,1.076.361.271-.5-.528-.277-.657.18Z" transform="translate(-157.175 -37.193)"/><path class="g" d="M337.56,58.653,339,58.228l-.309-.219-.341.09.026-.142-.135-.167-.251.11-.084.219-.18.155-.167.38Z" transform="translate(-157.861 -37.407)"/><path class="g" d="M351.813,61.005l1-.1-.019-.309.438.283.167-.238-.058-.225-.515-.1-.341.11-.457-.232-.406.638.193.167Z" transform="translate(-162.864 -38.264)"/><path class="g" d="M353.613,75.786l-.155-.316-.148,2.88.155-.18.206.193-.206-.548.071-.432.283-.039.077-.052-.283-1.507Z" transform="translate(-163.465 -43.697)"/><path class="j" d="M342.182,62.03l-.142.129.425-.09-.283-.039Z" transform="translate(-159.455 -38.915)"/><path class="g" d="M355.526,61.167l.573-.142-.992-.245-.168.187.586.2Z" transform="translate(-164.045 -38.471)"/><path class="g" d="M335.185,56.762l-.058.1-.168.1.213.155.928-.438.064-.225-.277-.393-.606.335-.1.187.006.18Z" transform="translate(-156.936 -36.791)"/><path class="g" d="M344.063,64.863l.271.058-.052-.077h.18l.155-.225-.8-.406H343.5l.142.084-.032.174-.155-.071v-.271l-.09-.142-3.447-1.134-.077.174.116.213-.058.258-.567-.29.29-.155-.3-.129-.283.258h-1.327l-.045.251-.064-.258-.316-.116.045-.174-.393-.367-1.462.084-.064-.129-.7-.232v-.084l.193-.11-.767-.116L334,62.2h-.258l.187-.135-.264-.084.129-.071h.187l-1.288-.187-.052.122-.432.264h.193l-.064.142.071.18h-.419l-.064.058v.11l-.522-.232-.277.11-.49-.148-.283.49-.148-.052-.573-.612h.271l-.155-.567-.161-.116h-.406l-.483-.245-.232.277v.2l-1.2.019.1-.129h-1.25v.142l-.039-.258-.122-.032-.245.052-.271-.148-.271.18.142.039-1.037.4.058-.187,1.288-.754.116-.148.283-.135.109-.161-.1-.09.116-.052-.077-.245H325.9l-.052-.219-.986-.058-.155.1-.3.045.168-.258-.644-.052.29-.135v-.1l-.444-.116-.316.084-.419.47.045.11-.5.122.155.122-.689.084.064-.148-.226.071h-.155l-.38.122.142.1-1.4.438-.032.064-.09.071.064.09h-.2l.232.161h-.18l.18.167v.116l-1.359.174-.071.457.316.18.135.251-1.108-.361-.148.135.225.122-.451.11.528.393-.039.077-.271-.148h-.4l.045-.438-.1-.322-.122.387-.277.174-.1.161.271.361-.129.715h.18l.271-.071.451.155.09.206-.11.193.271.2h-.264l-.1-.161.058-.193-.271-.271-.361.122.052.361-.586.722h-.644l-.116-.11.393.071.535-.541.11-.4-.187-.225.052-.8-.193-.29.18-.644-.741-.11-.7,1.044.129.032-.116.522.277.11.1.213.142.077-.142.264-2.293-.934.071.219.322.187.1.213-.071.148-.283.155V64.3l-.142-.116-.354.213h-.393l-.219.18h-.316l.168-.335-.322.116-.045.148-.1-.064-1.011.451-.052.283-.4.071-.18-.193v-.167l.374-.1-.142-.245-.586-.116.11.283-.09.3.161.322-.071.206h-.1l-.064-.071-.238-.045-.573.38.109.438-.522-.071L308.36,66l-.142.148.071.155.225.077v.161l-.174.039-.393-.187-.18-.341v-.335l-.644-.548,1.456.438.676-.361v-.309l-2.036-.863.174-.064-.155-.071-.3.039h-.277l-.148-.129h.116l.316-.129-.122-.129-.3-.122-.238.167v-.148l-.1-.142-.283.361v-.245l-.367.354.039-.167.148-.213v-.1l-.129.122h-.161l-.045.1-.206.1-.084.258-.084-.168.174-.245-.271.077v.174l-.064.058h-.174l.129.129H304.7l-.122-.084-.077.058.052.167-.077-.052h-.129v-.155h-.161l-.064.077v.122l-.077.064-.238.039-.116.187h.142l.032.1v.064h-.122l-.1-.064-.129.077.052-.219-.644.586H303l.676-.245v.142l-.064.045-.09-.052-.5.728-.039.193-.18.039-.032.425-.3.09.129.155-.277.142-.251.367-.129-.11v.148l-.348.193.122.1h-.2l-.387.238h-.09l-.1.122.09.129-.071.477.122.039.161-.071.045.077-.122.116h-.09l-.077.077v.155h.251l-.116.167.245.213.271.071.425-.374.161-.039.058-.193.567,1.585h.18l.155-.245h.193l.135-.122.077.039.11-.29h-.084l.032-.554.477-.606-.219-.271-.161-.045-.032-.3.419-.792.573-.464v-.258l.084-.213.155-.142.367-.032.187.084.084.2-.928,1.018v.9l.612.232.928-.245.109-.161-.109.161.1-.039.148.168.2.045-1.366.335-.142.155.052.161.135.09.045.1h0v.258l-.193.1-.206-.264-.219.122-.129.464h0v.361l.039.039-.077.142h-.264v.064l-.129.077-.109-.161-.928.387h0l-.142-.077v-.155l-.47.245-.367-.232-.11-.193h.283L302.259,70h-.1l.064-.168.148-.09-.11-.122v-.406l-.309.193v.116l-.18-.077-.116.193.226.986-.1.1h-.348v.052l-.29.045-.09.18h-.109l-.11.064-.29.464-.238.11-.528.644-.29-.11-.135.11.032.277h-.193l-.142-.077h-.226l-.142.129v.161l.509.161.316.541-.142.792-1.449-.1-.193.142v1.933h.483l.277.3.064-.006.644-.122.6-.644v-.387l.644-.548.1-.219v-.071l.193-.264.419.1.683-.419,1.591,1.469v.49l.251-.38-.1-.2.219-.122h.174l-1.288-1.288v-.264l.1-.155h.148L303,73.7l.18.084.206.361.773.509.045-.129-.045.129.058.548.155.219h0l.129.225.367.135h-.245l.168.4.219.11-.019-.264h.161l-.1-.1.084-.058h.167l-.077-.213h-.193l.077-.142-.187-.29.116-.077h.187l.045-.2.142.052.174-.1.29.148.219-.155.309-.039-.174-.161-.135-.393.232-.283v-.142l.238-.361h0l.309-.47.258-.052v.174l.38.052-.309.2.232.116v.2l.722-.225-.238-.064-.187-.206,1.011-.406-.283.2.084.142-.322.335,1.037.78.084.271-.052.09-.837.193-.825-.29-1.218.309-.116.206-.483.058-.052.193.1.071V75.9l.271.232.116.039.142.161.49-.168.316.2.238-.052.219-.161.18.045.174-.058-.213,1.037.122.058h0v0l-.122-.052-.219.638-2.055-.148h0l-.644-.283-.515.309.032.341-.786-.155-.38-.329-.683-.142-.367-.283.18-.187.052-.58-.032-.1-2.19.142-.805.5-.87-.206-.258.535-.348.2-.3.477v.4l-1.675,2.577.18.715-.167.953.039.419v.277l1.991,2.1,1.179-.148.174.064,1.2-.522h0l.348.09.341.49.58-.11.1.142.174.039.064.258-.045.232h0l-.058.348-.039.052.09.135-.219.277,1.018,1.933-.039.277.148.548-.483,1.63,1.469,4.774.219.174,1.553-.354,1.359-1.546.122-.567-.09-.1.644-.515-.09-1.243,1.366-1.379-.432-2.293,2.9-4.78-.148-.09-1.585.316-.122-.148-.032.045.032-.045-.122-.052.135-.129-2.519-5.031.393.644.142-.374,2.01,4.51,1.881-.7.225-.271.644-.206.09-.206.258-.058.155-.245.148-.084.077-.361.387-.464v-.142l-.2-.277-.387-.155-.193-.606-.277.361-.721.335h-.045l-.1-.167v-.412l-.155.258h0l-.606-1.288v-.045l.432-.116.367.644.818.374.374-.129.18.341,2.242.142.155.322.457.341h.258l-.322.135.5.445.322-.419,1.108,3.865.438-.419.361-1.7,1.334-1.237.071-.277.966-.464.644,1.288-.032.425.1.142h.232l.2-.271.122.1.96,3.666.683.49-.167-.947-.992-1.288.161-.966.2-.071.444.309.064.238h.148v.142h.187l.129.129-.064.232.116.1.335-.432.47-.213.18-.354L325,82.1l-.773-1.327.464-.554.412-.045.116.341.064-.116.792-.548.644-.077.8-.786v-.258l.167-.09.451-.837-.322-.135.251-.142-.354-.309h.341l-.419-.676-.206-.161.225-.393.541-.29-.135-.167-.232-.1-.316.238-.148-.213-.245-.084v-.335l.979-.515-.2.573h.167l.438-.29h.116l.271.148-.142.29.045.161.116.064.187-.045h.052l.077.142-.071.857.689-.29.1-.116-.309-.825-.213-.219.071-.238.412-.3.084-.322.329-.341h0l.193-.129.277.167,1.54-1.81.438-1.8-.419-.412h-.206l-.148.2h-.135v-.264l-.148.193-.032-.271H331.4v-.2l1.933-1.707,1.63-.129.348.129-.122.174.908-.18-.1-.084v-.225l.644-.722.4-.052.155.071.174-.084-.116.251.135.1-.064.11.689-.367.052-.264.412-.174v.064l-1.707,1.868-.225.058-.3.947.271,1.63.374-.406.052-.277.161-.122.18-.045v-.225l.225-.251.29-.064-.045-.264.174-.329h.187L338,68.709l.045-.445h-.155l-.032-.277.387-.586h.213l.09.045.238-.264.052.232.225-.148.6-.064.18.161.1-.161,1.578-.973h.477v-.213l-.522-.683-.2-.045.238-.084.129.129h.271l.322-.193L342.3,65l-.045-.155v-.135l.09-.09h.129v.142l.084.18.644.129.167.225.367.155h.283l-.11-.148h.116v-.4l.071-.032Z" transform="translate(-143.047 -37.98)"/><path class="g" d="M327.691,63.4l-.258-.11-.1.213.361-.1Z" transform="translate(-154.222 -39.364)"/><path class="j" d="M330.66,63.56l-.18.09.18-.09Z" transform="translate(-155.342 -39.46)"/><path class="g" d="M274.034,91.65l-.084.077.167.277-.084-.354Z" transform="translate(-135.23 -49.454)"/><path class="g" d="M279.816,97.76l.174-.032-.013-.148-.168.058.006.122Z" transform="translate(-137.315 -51.563)"/><path class="j" d="M340.632,102.11l-.122.064.122-.064Z" transform="translate(-158.911 -53.175)"/><path class="g" d="M345.82,104.334l.077-.084-.947.135.387.071.483-.122Z" transform="translate(-160.491 -53.936)"/><path class="g" d="M343.929,104.27l-.219.032-.11.148.341.052.335-.116-.348-.116Z" transform="translate(-160.01 -53.944)"/><path class="g" d="M346.7,104.624l.058-.071.522-.283-.354.013-.412.232-.11.3.3-.193Z" transform="translate(-161.006 -53.944)"/><path class="g" d="M348.03,102.08l.631.161-.167-.271-.464.11Z" transform="translate(-161.586 -53.125)"/><path class="g" d="M345.088,104.982l-.438-.122.213.11.225.013Z" transform="translate(-160.384 -54.153)"/><path class="j" d="M347.28,102.17l.29.084-.29-.084Z" transform="translate(-161.32 -53.196)"/><path class="g" d="M344.6,101.308l.245.85.116-.264-.026-.483.155.1.122.271.213.026-.11-.734.361-.3-.49.168-.29-.251,1.2-.5-.251.116-.6-.064-.29.142-.354.915Z" transform="translate(-160.366 -52.496)"/><path class="g" d="M348,100.157l-.161-.1.122.58.18-.412-.142-.071Z" transform="translate(-161.519 -52.446)"/><path class="j" d="M336.62,100.39l.148.206-.148-.206Z" transform="translate(-157.527 -52.563)"/><path class="j" d="M337.15,101.43l.11.142-.11-.142Z" transform="translate(-157.715 -52.933)"/><path class="g" d="M341.794,104.089l.283.006-.238-.161-.412-.064.238-.187-1.83-.193-.116.155.18.039.122.148,1.772.258Z" transform="translate(-158.63 -53.666)"/><path class="g" d="M340.91,99.711l.554.979.187.1.316-.045.3.155.341-.071.322-1,.361-.232-.3-.85.4-.3-.161-.148-.213-.064-.213-.2-.367.528-.122.064-.168-.026-.206.374-.348.122-.155.341-.374-.1-.155.374Z" transform="translate(-159.053 -51.723)"/><path class="g" d="M338.477,101.289l.039-.277.1-.064.006-.161-.193-.213-.032.122.1.122-.148-.045L335.99,98.68l2.152,3h.251l.084-.393Z" transform="translate(-157.303 -51.955)"/><path class="g" d="M306.917,84.94l-.283.006-.193.116.5.316.155-.425-.18-.013Z" transform="translate(-146.789 -47.066)"/><path class="g" d="M304.86,83.675l.18.586.161-.116.039-.425-.213-.09-.168.045Z" transform="translate(-146.227 -46.6)"/><path class="a" d="M262.465,77.423a2.77,2.77,0,0,1-2.609,2.809,2.577,2.577,0,0,1-2.577-2.674,2.764,2.764,0,0,1,2.577-2.809,2.577,2.577,0,0,1,2.609,2.674Z" transform="translate(-129.298 -43.441)"/><path class="a" d="M270.285,95.683a1.288,1.288,0,0,1-1.211,1.288,1.2,1.2,0,0,1-1.2-1.243,1.288,1.288,0,0,1,1.2-1.288,1.211,1.211,0,0,1,1.211,1.243Z" transform="translate(-133.067 -50.446)"/><path class="a" d="M312.407,92.579a4.632,4.632,0,0,1-4.452,4.683,4.406,4.406,0,0,1-4.426-4.51,4.632,4.632,0,0,1,4.426-4.683,4.413,4.413,0,0,1,4.452,4.51Z" transform="translate(-145.753 -48.18)"/><path class="a" d="M328.725,67.352a2.01,2.01,0,0,1-1.933,2.023,1.868,1.868,0,0,1-1.933-1.933,2.016,2.016,0,0,1,1.933-2.023,1.875,1.875,0,0,1,1.933,1.933Z" transform="translate(-153.342 -40.121)"/><path class="a" d="M335.677,84.917a2.287,2.287,0,0,1-2.2,2.306,2.165,2.165,0,0,1-2.19-2.2,2.287,2.287,0,0,1,2.19-2.3,2.158,2.158,0,0,1,2.2,2.2Z" transform="translate(-155.63 -46.276)"/><path class="a" d="M350.179,64.836a1.978,1.978,0,0,1-1.888,1.984,1.842,1.842,0,0,1-1.881-1.868A1.971,1.971,0,0,1,348.291,63a1.83,1.83,0,0,1,1.888,1.836Z" transform="translate(-161.01 -39.26)"/></g><g transform="translate(194.176 193.665)"><ellipse class="a" cx="17.104" cy="5.308" rx="17.104" ry="5.308" transform="translate(12.542 107.256)"/><ellipse class="k" cx="17.104" cy="5.308" rx="17.104" ry="5.308" transform="translate(12.542 107.256)"/><path class="l" d="M317.008,427.063a22.045,22.045,0,0,0-3.1,11.551c0,9.837,5.8,17.819,12.93,17.819s12.93-7.982,12.93-17.819a22.1,22.1,0,0,0-3.092-11.564Z" transform="translate(-301.135 -342.625)"/><path class="m" d="M338.518,426.2c.09,1.591-4.3,2.9-9.8,2.918s-10.031-1.256-10.121-2.847,4.29-2.893,9.792-2.912S338.428,424.61,338.518,426.2Z" transform="translate(-302.804 -341.312)"/><path class="n" d="M338.282,428.693c-1.649-.973-5.115-1.643-9.1-1.623s-7.512.728-9.019,1.746c1.649.973,5.122,1.636,9.1,1.623S336.807,429.7,338.282,428.693Z" transform="translate(-303.359 -342.632)"/><path class="a" d="M295.794,296a5.266,5.266,0,0,1,.129,4.406c-1.069,2.132-2.4,4.271-1.6,5.341s3.221,2.4,2.938,4.671-3.472,6.809-1.469,9.348,5.341,2.4,5.469,5.205-3.221,5.07-2.268,7.608,6.442,3.073,6.442,4.806-2.139,3.6-.4,5.476,10.127,6.739,11.332,4.741,3.614-7.55,2.029-15.41c-.271-1.321-2.152-1.617-2.416-3.485s.535-5.205-.805-7.086-5.6-2.538-5.869-4.007,1.6-5.07-.271-7.344-6.275-3.337-6.275-4.8,1.34-3.343-.535-5.341S295.794,296,295.794,296Z" transform="translate(-294.081 -296)"/><path class="o" d="M306.66,320.43c2.783,8.375,7.647,19.758,9.625,25.253,2.4,6.674,4.51,11.506,5.56,18.18.5,3.105.889,14.424,1.166,25.653" transform="translate(-298.556 -304.692)"/><path class="p" d="M297.77,297.26s2.274,1.868,4.271,10.011c.135.522.283,1.076.445,1.656" transform="translate(-295.393 -296.448)"/><path class="a" d="M351.292,319.62a4.219,4.219,0,0,0-.11,3.524c.857,1.714,1.933,3.421,1.288,4.278s-2.577,1.933-2.345,3.736,2.777,5.45,1.172,7.479-4.271,1.933-4.381,4.168,2.577,4.059,1.817,6.088-5.154,2.454-5.154,3.865,1.707,2.886.322,4.381-8.111,5.4-9.071,3.794a17.612,17.612,0,0,1-1.623-12.33c.213-1.057,1.72-1.288,1.933-2.789s-.425-4.168.644-5.663,4.51-2.029,4.7-3.221-1.288-4.065.213-5.875,5.025-2.673,5.025-3.865-1.069-2.674.425-4.278S351.292,319.62,351.292,319.62Z" transform="translate(-307.853 -304.404)"/><path class="o" d="M346.3,339.16c-2.223,6.719-6.12,15.816-7.731,20.209-1.933,5.341-3.595,9.212-4.452,14.553-.425,2.667-.754,12.949-.979,22.548" transform="translate(-307.977 -311.355)"/><path class="p" d="M358.6,320.62s-1.817,1.495-3.414,8.008c-.11.425-.226.863-.361,1.334" transform="translate(-315.691 -304.759)"/><path class="a" d="M303.856,366.58a3.517,3.517,0,0,1,.084,2.944c-.709,1.43-1.6,2.854-1.069,3.569s2.145,1.6,1.965,3.125-2.319,4.555-.979,6.249,3.569,1.6,3.659,3.479-2.145,3.4-1.52,5.089,4.284,2.055,4.284,3.221-1.43,2.409-.264,3.659,6.771,4.51,7.576,3.17a14.7,14.7,0,0,0,1.353-10.308c-.174-.883-1.437-1.082-1.611-2.332s.354-3.479-.535-4.729-3.749-1.694-3.93-2.68,1.069-3.389-.18-4.909-4.194-2.229-4.194-3.221.9-2.229-.354-3.569A17.993,17.993,0,0,0,303.856,366.58Z" transform="translate(-297.15 -321.111)"/><path class="o" d="M311.12,382.9c1.862,5.611,5.115,13.213,6.442,16.885,1.611,4.464,3,7.692,3.717,12.156" transform="translate(-300.143 -326.917)"/><path class="o" d="M305.18,367.41s1.514,1.25,2.854,6.693c.09.348.187.722.3,1.108" transform="translate(-298.03 -321.406)"/><path class="a" d="M363.828,363.13a3.5,3.5,0,0,0-.76,2.841c.367,1.559.908,3.15.225,3.724s-2.454,1.076-2.628,2.577,1.218,4.967-.47,6.307-3.865.747-4.361,2.577,1.288,3.794.316,5.3-4.645,1.018-4.909,2.145.837,2.674-.573,3.627-7.628,2.841-8.1,1.353a14.7,14.7,0,0,1,1.037-10.34c.38-.818,1.643-.721,2.107-1.9s.451-3.466,1.6-4.51,4.039-.792,4.432-1.707-.264-3.543,1.288-4.735,4.593-1.211,4.819-2.171-.361-2.377,1.166-3.4A17.939,17.939,0,0,1,363.828,363.13Z" transform="translate(-311.151 -319.884)"/><path class="o" d="M356.218,377.5c-3.092,5.038-8,11.693-10.134,14.965-2.577,3.975-5.682,6.52-6.4,10.952-.219,1.366-.406,3.865-.567,6.687" transform="translate(-310.105 -324.996)"/><path class="o" d="M372.317,363.78s-1.765.87-4.316,5.862c-.161.322-.341.644-.541,1.011" transform="translate(-320.188 -320.115)"/></g><g transform="translate(70.273 122.157)"><ellipse class="a" cx="26.6" cy="7.905" rx="26.6" ry="7.905" transform="translate(14.604 181.322)"/><ellipse class="k" cx="26.6" cy="7.905" rx="26.6" ry="7.905" transform="translate(14.604 181.322)"/><path class="n" d="M121.91,330.143s1.1,9.741,1.572,14.772,1.727,19.327,1.572,21.06-1.727,19.694-1.727,26.606.941,16.66.941,16.66-1.572,2.667-1.256,4.084a21.549,21.549,0,0,1,.644,3.614,8.574,8.574,0,0,0,.316,1.888,12.128,12.128,0,0,0,3.775,1.727c1.417.155,4.239-.786,4.239-1.256s1.256-5.186,1.256-6.919a10.32,10.32,0,0,1,.477-3.453c.477-2.358,5.5-34.936,6.127-37.925s1.572-25.453,1.572-25.453l1.1,2.042s2.667,24.042,2.512,26.716-1.1,12.884-.644,17.6,1.417,16.344,1.417,17.6-.316,4.084-.316,5.186-.941,2.828-.47,3.614a13.729,13.729,0,0,1,.941,2.358s5.663.941,7.228.941a4.425,4.425,0,0,0,2.835-1.411v-2.673c0-1.417.309-2.674.309-4.084s.161-4.4.161-6.6a57.2,57.2,0,0,1,.644-6.288c.161-1.411,2.358-17.909,2.674-24.042s1.727-19.971,1.727-22.155-.155-22.786-.155-22.786l-.316-3.775s-16.5,2.2-24.358,1.1-14.3-1.417-14.3-1.417Z" transform="translate(-108.923 -235.688)"/><path class="l" d="M133.285,465.293a3.3,3.3,0,0,1-1.288.7c-.863.258-1.385.432-2.074-.522s-2.081-2.074-3.221-1.559-2.422,1.288-2.68,1.933-.09,6.925-.09,8.143,2.339,1.727,4.677,1.817a7.421,7.421,0,0,0,4.155-1.211s1.991.168,2.686-.7.348-2.86-.09-3.55a25.408,25.408,0,0,1-1.385-2.512,7.4,7.4,0,0,1-.689-2.538Z" transform="translate(-109.623 -284.184)"/><path class="q" d="M135.472,478.817a2.119,2.119,0,0,0,.38-1.127,7.45,7.45,0,0,1-2.976.264,11.811,11.811,0,0,1-5.109.863,10.455,10.455,0,0,1-3.827-.87c0,.425,0,.76,0,.96,0,1.211,2.339,1.727,4.677,1.817a7.421,7.421,0,0,0,4.155-1.211S134.776,479.681,135.472,478.817Z" transform="translate(-109.645 -289.133)"/><line class="o" y1="4.162" x2="0.348" transform="translate(22.792 186.218)"/><path class="q" d="M130.814,466.111a1.778,1.778,0,0,1-.715-.644c-.7-.953-2.081-2.074-3.221-1.559a8.375,8.375,0,0,0-2.467,1.6c.374,1.069,1.288,2.957,3.073,3.079C128.965,468.688,130.1,467.406,130.814,466.111Z" transform="translate(-109.813 -284.184)"/><path class="l" d="M168.973,467.614a3.139,3.139,0,0,1-1.991-.084c-.7-.432-1.733-3.028-4.071-2.77s-3.376,2.422-3.865,2.686-.606.341-.779.606a79.229,79.229,0,0,0-.174,7.969c.084.7,5.025,1.379,8.059,1.037a6.836,6.836,0,0,0,4.329-1.823,2.467,2.467,0,0,0,1.559-2.074c.174-1.559-.348-3.292-1.218-3.9a12.889,12.889,0,0,1-1.553-1.288Z" transform="translate(-121.784 -284.527)"/><path class="q" d="M165.62,479.063a20.97,20.97,0,0,1-7.57-1.16v2.12c.09.689,5.025,1.379,8.059,1.037a6.836,6.836,0,0,0,4.329-1.823A2.467,2.467,0,0,0,172,477.163a6.486,6.486,0,0,0,0-1.172c-.129.264-.277.548-.445.825C171.076,477.678,169.775,478.979,165.62,479.063Z" transform="translate(-121.781 -288.529)"/><line class="o" x1="0.502" y2="4.291" transform="translate(46.738 187.577)"/><path class="q" d="M163.719,469.869c1.553.18,3.221-1.05,4.149-2.2a1.23,1.23,0,0,1-.341-.142c-.7-.432-1.733-3.028-4.071-2.77s-3.376,2.422-3.865,2.686A7.742,7.742,0,0,0,163.719,469.869Z" transform="translate(-122.329 -284.527)"/><line class="r" x1="3.775" y1="1.888" transform="translate(28.699 107.971)"/><path class="l" d="M163.515,217.571s.947-1.572,1.288.47-.477,4.239-1.572,5.025-1.572,0-1.572-.786S163.515,217.571,163.515,217.571Z" transform="translate(-123.065 -196.383)"/><path class="l" d="M135.037,219.064a1.288,1.288,0,0,0-1.727,1.411c0,1.888,2.512,4.561,3.614,3.93S135.037,219.064,135.037,219.064Z" transform="translate(-112.973 -197.09)"/><path class="n" d="M144.168,190.106s-2.454,4.084-5.025,5.186a10.413,10.413,0,0,0-5.8,9.116c.174,3.453,5.186,14.772,5.972,15.088s10.688-.47,11-.941,1.727-5.186,2.983-9.747a29.363,29.363,0,0,0,1.256-6.912,14.469,14.469,0,0,0,.644-4.555,8.285,8.285,0,0,0-2.042-5.031l-1.888,2.358.644-5.341a6.062,6.062,0,0,0-3.769.78,13.885,13.885,0,0,0-2.983,2.673Z" transform="translate(-112.989 -186.524)"/><path class="m" d="M229.245,192.834c-.232-.7-.934-.7-1.52-2.223s-2.223-1.166-2.693-1.4-.464-.464-.232-1.166.818-3.041-.232-3.041-1.875,2.454-2.107,3.041a31.385,31.385,0,0,1-2.107,3.041,8.229,8.229,0,0,1-1.52.232c-.58,0-1.288,1.172-1.4,1.752a6.908,6.908,0,0,0,.928,2.4,18.583,18.583,0,0,0,.709,2.049s.58.818,2.339.586,5.025,2.107,5.5,1.752a14.2,14.2,0,0,0,1.984-3.621A6.017,6.017,0,0,0,229.245,192.834Z" transform="translate(-142.907 -185)"/><path class="l" d="M114.286,348.68s2.126,3.221,2.242,4.471.11,3.582.219,4.361-.335,1.346-.889,1.346a1.179,1.179,0,0,1-.9-.56,13.071,13.071,0,0,0,.335,1.9c.219.786,1.449,1.456,1.34,2.235s-1.34,1.121-3.021,1.121a5.083,5.083,0,0,1-4.7-3.221c-1-2.345-2.01-9.058-2.01-10.308S113.172,347.784,114.286,348.68Z" transform="translate(-103.586 -243.111)"/><path class="o" d="M113.731,355.29a3.026,3.026,0,0,1-.451,2.577,10.359,10.359,0,0,0-1.34,3.021,10.771,10.771,0,0,0,1,2.235c.451.9,1.933.786,2.016,1.572a1.726,1.726,0,0,1-.225,1.224" transform="translate(-105.376 -245.586)"/><path class="o" d="M116.91,362.72a11.641,11.641,0,0,0,.6,2.577c.451,1.121,2.8,1.791,1.933,3.021" transform="translate(-107.144 -248.229)"/><path class="o" d="M114.72,363.45a9.894,9.894,0,0,0,.56,2.126c.335.644,2.577,1.34,2.126,3.131" transform="translate(-106.365 -248.489)"/><path class="o" d="M119.161,361.374s-.225-1.791-.335-2.461a15,15,0,0,1-.116-1.933" transform="translate(-107.785 -246.187)"/><path class="l" d="M158.916,239.6a23.417,23.417,0,0,0-10.056-4.555c-6.288-1.256-14.617.786-17.916,2.983A8.645,8.645,0,0,0,127.33,244Z" transform="translate(-110.851 -202.669)"/><path class="m" d="M216.54,209a3.569,3.569,0,0,1,0-1.881c.316-.644.47-2.519.941-2.989s3.93-2.358,6.442-1.256,3.775,5.8,4.245,6.912-.941,3.614-1.572,3.93-1.256-1.888-1.888-2.512S218.724,208.058,216.54,209Z" transform="translate(-142.546 -191.238)"/><path class="q" d="M134.258,229.785c-.644.155-12.575,1.727-17.916,3.3s-9.741,3.614-9.9,5.656-4.51,40.109-4.677,42.312,1.417,14.927,2.2,15.4a11.231,11.231,0,0,0,5.656.316,5.392,5.392,0,0,0,2.042-1.411l.47-10.533s.316,3.614.941,3.775a70.536,70.536,0,0,0,24.049,2.042c13.529-1.1,19.172-3.144,20.267-3.93s.947-3.144.947-3.144.155-1.727.155-3.459-5.044-36.495-5.044-36.495,20.744-5.656,22.316-7.544,9.116-22.47,9.116-24.042-3.459-3.93-5.972-4.084-8.645,12.24-10.056,13.2-14.933,6.288-19.971,7.228S134.258,229.785,134.258,229.785Z" transform="translate(-101.751 -193.161)"/><path class="o" d="M144.48,258.38s2.126,8.375,8.375,11.8" transform="translate(-116.953 -211.107)"/><path class="o" d="M158.76,282.45q.709.367,1.449.715" transform="translate(-122.034 -219.671)"/><path class="o" d="M144.48,271.86a37.015,37.015,0,0,0,6.912,5.514" transform="translate(-116.953 -215.903)"/><path class="n" d="M178.523,269.681l-.792-6.371L170,266.17l3,1.23c-1.462,1.288-3.376,3.105-2.19,2.893a20.441,20.441,0,0,0,4.471-1.933Z" transform="translate(-126.033 -212.861)"/><path class="n" d="M113.3,298.55c0-2.828,1.379-31.625,1.379-31.625l-.47-2.042-3.485-5.553,1.855,10.739c-1.475-.457-4.445-1.243-3.324.258a21.55,21.55,0,0,0,3.517,3.395l-1.057,21.3a9.109,9.109,0,0,0,1.25,5.076l1.082,1.842A8.059,8.059,0,0,1,113.3,298.55Z" transform="translate(-104.332 -211.445)"/><path class="s" d="M116.83,325.51a5.958,5.958,0,0,0,.644,1.14Z" transform="translate(-107.116 -234.991)"/><path class="l" d="M163.442,324.035a62.08,62.08,0,0,1-45.572,2.042s.316,3.614.941,3.775a70.536,70.536,0,0,0,24.049,2.042c13.529-1.1,19.172-3.144,20.267-3.93s.947-3.144.947-3.144a8.934,8.934,0,0,1,.064-.921Z" transform="translate(-107.486 -234.418)"/><path class="l" d="M102.5,342.282s3.614,1.572,6.6.644,3.769-1.888,4.239-1.727.477,3.923,0,5.025-1.572,1.888-4.87,2.2-5.025-1.288-5.341-2.2a31.423,31.423,0,0,1-.631-3.943Z" transform="translate(-102.017 -240.567)"/></g><g transform="translate(33.966 133.115)"><ellipse class="a" cx="23.379" cy="7.254" rx="23.379" ry="7.254" transform="translate(0.41 162.524)"/><ellipse class="k" cx="23.379" cy="7.254" rx="23.379" ry="7.254" transform="translate(0.41 162.524)"/><path class="l" d="M84.56,209.864s1.933,2.293,1.836,3.221a5.07,5.07,0,0,0,.709,2.976c.457.573,1.72,1.031,1.72,2.062a3.7,3.7,0,0,1-.689,1.933s.464,4.593,0,5.74-2.293,1.147-3.324,1.147-1.6-.116-1.933-.116-2.409-1.836-4.013-5.85.232-9.985,1.6-10.784S84.56,209.864,84.56,209.864Z" transform="translate(-57.08 -204.755)"/><line class="o" y1="2.641" x2="4.703" transform="translate(26.682 9.47)"/><path class="o" d="M90.9,215.972s2.525-.689,1.611,2.983" transform="translate(-61.584 -206.959)"/><path class="l" d="M74.849,241.394l-.715,8.536-9.064-2.139v-6.758S71.467,239.609,74.849,241.394Z" transform="translate(-52.394 -215.702)"/><path class="l" d="M68.675,203.292a14.173,14.173,0,0,1-5.154.354c-2.654-.354-8.491.354-10.082,4.252s.354,7.428.174,8.491-3.009,2.654-3.009,4.252,1.237,3.008.709,4.245-1.417,2.3-.709,3.537,3.543-.883,3.865.354,3.008,2.835,4.252,2.835,2.654-2.654,3.363-1.6a4.039,4.039,0,0,0,3.537,1.933c1.417-.193,2.119-3.447,5.154-2.126s4-1.443,3.865-3.865c-.1-2.306-2.828-5.489-2.3-7.26s1.591-3.009,1.237-4.954-1.933-2.654-1.063-4.071,2.126-1.411,2.48-3.182a3.512,3.512,0,0,0-3.009-4.426C69.332,201.707,68.675,203.292,68.675,203.292Z" transform="translate(-47.154 -202.01)"/><path class="l" d="M52.451,342.14a122.076,122.076,0,0,1,1.25,27.92c-.5,5.5-3.221,6.938-3.917,14.224s1.778,22.052.535,29.879c-.167,1.069-1.424,3.736,0,5.154s6.4.535,7.827.535,4.8-.535,5.154-1.424-2.132-1.778-3.73-4.8a24.8,24.8,0,0,1-2.847-11.2c0-4.091,2.487-15.648,4.445-25.073s3.021-14.585,3.021-19.919v-16.75c0-.889-4.8-3.021-8.536-2.313S52.451,342.14,52.451,342.14Z" transform="translate(-46.907 -250.474)"/><path class="n" d="M59.589,454.363c-.277-.515-.535-1.069-.78-1.643-.464.979-.644,2.152-1.533,2.358-1.6.354-6.938-.18-6.938-.18-.174,1.069-1.424,3.736,0,5.154s6.4.535,7.827.535,4.8-.535,5.154-1.424S61.187,457.41,59.589,454.363Z" transform="translate(-46.913 -291.208)"/><path class="q" d="M57.128,406.472a22.36,22.36,0,0,1-.393-4.046c0-4.091,2.487-15.648,4.445-25.073S64.2,362.768,64.2,357.434v-16.75c0-.889-4.8-3.021-8.536-2.313s-3.221,3.736-3.221,3.736a122.077,122.077,0,0,1,1.25,27.921c-.5,5.5-3.221,6.938-3.917,14.224-.515,5.3.644,14.527.857,22.187a13.529,13.529,0,0,0,6.494.032Z" transform="translate(-46.907 -250.474)"/><path class="l" d="M50.44,438.9a28.777,28.777,0,0,0,4.084.535,12.454,12.454,0,0,0,3.382-.709l.535,4.625a22.832,22.832,0,0,1-4.98.889,6.6,6.6,0,0,1-2.667-.361S50.44,440.315,50.44,438.9Z" transform="translate(-47.189 -286.23)"/><path class="l" d="M50.738,323.87s-1.069,7.086,0,10.668,3.91,8.542,4.625,9.96a27.944,27.944,0,0,1,1.6,6.758c0,.889.709,11.383-.354,16.717s-2.313,8.375-2.313,13.529,2.487,24.409,2.487,27.785-1.243,7.647-.354,8.536,16.183-.921,17.607-1.456a1.894,1.894,0,0,0,.883-2.867c-.535-.709-6.938-2.809-8-3.7s-1.778-3.736-1.933-4.98.354-20.319,1.069-24.583,3.556-12.627,5.154-17.252S75.649,342,75.649,336.136a102.983,102.983,0,0,0-.528-10.494S58.552,326.891,50.738,323.87Z" transform="translate(-47.125 -245.365)"/><path class="n" d="M77.23,463.534a1.894,1.894,0,0,0,.889-2.854c-.535-.709-6.938-2.809-8-3.7a2.428,2.428,0,0,1-.438-.5l-.451,2.815a6.442,6.442,0,0,1-3.917,1.424,15.75,15.75,0,0,1-5.508-1.694c-.3,2.693-.934,5.386-.18,5.959C63.238,467.767,75.806,464.069,77.23,463.534Z" transform="translate(-50.329 -292.545)"/><path class="q" d="M64.91,404.166c-.052-3.4.451-20.022,1.1-23.92.709-4.271,3.556-12.627,5.154-17.252s4.445-20.982,4.445-26.851a102.985,102.985,0,0,0-.528-10.494s-16.531,1.243-24.345-1.778c0,0-1.069,7.086,0,10.668s3.91,8.542,4.625,9.96a27.944,27.944,0,0,1,1.6,6.758c0,.889.709,11.383-.354,16.717s-2.313,8.375-2.313,13.529c0,3.653,1.25,15.539,1.978,21.994a27.258,27.258,0,0,0,6.2.986A10.307,10.307,0,0,0,64.91,404.166Z" transform="translate(-47.125 -245.365)"/><path class="l" d="M59.055,448.259a10.038,10.038,0,0,0,3.73.7c2.132,0,5.334.528,5.154-.535a31.483,31.483,0,0,1,.174-4.625,28.407,28.407,0,0,1-6.223.18c-2.313-.354-3.73-.535-3.73-.535A23.484,23.484,0,0,0,59.055,448.259Z" transform="translate(-49.935 -287.906)"/><path class="n" d="M69.092,255.44a13.677,13.677,0,0,0-7.293-4.8c-4.8-1.243-9.425,5.869-10.668,9.779s-1.424,14.4-3.221,19.739-3.021,16.009-2.313,17.252,16.009,5.154,21.343,5.154S78,298.3,78.163,296.168s-.889-16.357-1.778-24.01S69.092,255.44,69.092,255.44Z" transform="translate(-45.393 -219.26)"/><path class="l" d="M73.924,349.3s-.058,2.467,0,3.917a12.15,12.15,0,0,1-.541,3.917c-.3.96-1.024,1.623-1.082.96s.238-1.868.238-2.409-.18-3.009-.18-3.009a26.977,26.977,0,0,1-.541,2.648c-.361,1.385-1.385,2.828-1.868,2.951s-.786-.3-.541-.96a28.312,28.312,0,0,0,.9-3.015c.058-.438.071-1.778.071-1.778a34.518,34.518,0,0,1-1.623,4.033c-.483.728-.541,1.089-1.024,1.147s-.419-.966-.122-1.746A24.384,24.384,0,0,0,68.4,352.4c0-.238-.541,1.082-1.2,1.81s-1.147,1.321-1.449,1.2.122-1.288.367-1.81a8.1,8.1,0,0,0,.6-1.984v-1.565s-.541-1.211,1.991-1.63S73.383,347.521,73.924,349.3Z" transform="translate(-52.596 -253.961)"/><path class="l" d="M64.733,347.24a2.19,2.19,0,0,0,.773,2.487c1.327.889,6.062,1.6,7.576.18A4.291,4.291,0,0,0,74.6,347.06Z" transform="translate(-52.23 -253.616)"/><path class="n" d="M63.542,261.48s-3.91,6.4-3.91,10.494-2.139,32.72-2.313,36.282.174,6.4,2.313,8.175,10.842,1.778,13.155.889,4.445-4.98,4.445-7.821-2.667-23.836-3.221-27.921S73.3,266.64,71.7,264.154s-2.139-2.674-2.139-2.674" transform="translate(-49.622 -223.168)"/><path class="r" d="M57.93,302.523s1.089-24.783,1.933-29.84a36.386,36.386,0,0,1,2.918-9.212" transform="translate(-49.853 -223.876)"/><path class="r" d="M78,263.83a31.878,31.878,0,0,1,3.221,12.24c.148,6.333,2.313,26.574,2.313,26.574" transform="translate(-56.994 -224.004)"/><line class="r" y1="3.556" x2="0.528" transform="translate(23.525 42.403)"/></g></g></svg>