<svg xmlns="http://www.w3.org/2000/svg" width="100.749" height="24" viewBox="0 0 100.749 24"><defs><style>.a{fill:rgba(0,0,0,0.54);}</style></defs><g transform="translate(-21.987 -313.8)"><path class="a" d="M537.451,314.6h3.661v7.322h-3.661Zm-6.332,3.661-.218.067s1.26,1.058,1.26,1.125c.067.067.134.067.067.285s-.134.42-.134.42,1.125-.218,1.26-.285c.134,0,.218,0,.218.134s-.067,1.344-.067,1.344h.353s-.067-1.26-.067-1.344c0-.134.067-.134.218-.134.134,0,1.26.285,1.26.285a2.638,2.638,0,0,0-.134-.42c-.067-.218,0-.218.067-.285s1.26-1.125,1.26-1.125l-.218-.067c-.134-.067-.067-.134-.067-.218s.218-.773.218-.773-.571.134-.638.134-.134,0-.134-.067a1.959,1.959,0,0,0-.134-.353s-.638.705-.705.773c-.134.134-.285,0-.218-.134,0-.134.353-1.612.353-1.612s-.353.218-.487.285-.218.067-.218-.067c-.067-.134-.487-.924-.487-.991,0,0-.42.84-.487.991-.067.134-.134.134-.218.067-.134-.067-.487-.285-.487-.285s.353,1.478.353,1.612-.067.218-.218.134l-.705-.773a.991.991,0,0,1-.134.285c0,.067-.067.134-.134.067a6.714,6.714,0,0,1-.705-.134,5.671,5.671,0,0,0,.286.773C531.254,318.043,531.254,318.194,531.119,318.261ZM526.4,314.6h3.661v7.322H526.4Z" transform="translate(-419.7 -0.666)"/><path class="a" d="M122.185,335.9a1.343,1.343,0,0,1-1.192.84c-.42,0-1.7-.067-1.7-3.376v-7.1c0-2.183-1.7-3.947-6.063-3.947-4.719,0-4.786,2.318-4.786,2.889-.067.638.286,1.344,1.478,1.344,1.058,0,1.344-1.192,1.478-1.612a1.954,1.954,0,0,1,2.116-1.9c1.612,0,2.6,1.411,2.67,3.443v1.125h0v.067a1.684,1.684,0,0,1-1.125,1.344,20.6,20.6,0,0,1-3.594.84c-.991.218-3.728.924-3.661,3.8.067,2.821,2.889,3.8,4.854,3.728a5.671,5.671,0,0,0,3.527-1.26c.285-.218.285-.218.487.067a4.359,4.359,0,0,0,3.376,1.192c2.25,0,2.536-1.058,2.67-1.411C122.823,335.75,122.319,335.549,122.185,335.9Zm-8.8.773a2.371,2.371,0,0,1-2.469-2.469,4.261,4.261,0,0,1,2.4-3.527,18.408,18.408,0,0,1,2.67-1.26h.134a.235.235,0,0,1,.067.134h0v.067h0v.067h0v2.956C116.206,334.978,115.081,336.674,113.385,336.674Zm-6.483-.067c-.285-.067-2.049.134-2.049-5.206V314.573c0-.218,0-.773-.638-.773s-4.854.218-5.139.285c-.286,0-.487.353,0,.353.487.067,2.754.218,2.754,3.947v5.139c0,.134,0,.218-.067.285v.067h0c-.067.067-.134,0-.353-.134a7.165,7.165,0,0,0-4.014-1.26,7.258,7.258,0,0,0-7.39,7.322c0,5.273,3.728,7.809,7.608,7.809a7.126,7.126,0,0,0,3.728-1.125c.571-.353.487-.286.571.218.067.353,0,1.058.991.991,1.058-.134,3.594-.42,4.081-.487C107.473,336.96,107.322,336.674,106.9,336.607Zm-8.733.2c-3.09,0-4.719-3.661-4.719-7.188,0-3.88,2.183-6.483,4.5-6.331,3.023.218,3.8,2.6,3.88,6.9v.924C101.763,335.33,100,336.808,98.169,336.808ZM89.94,335.9a1.343,1.343,0,0,1-1.192.84c-.42,0-1.7-.067-1.7-3.376v-7.1c0-2.183-1.7-3.947-6.063-3.947-4.719,0-4.786,2.318-4.786,2.889-.067.638.286,1.344,1.478,1.344,1.058,0,1.344-1.192,1.478-1.612a1.954,1.954,0,0,1,2.116-1.9c1.612,0,2.67,1.411,2.67,3.527v.705a1.783,1.783,0,0,1-1.192,1.831,20.6,20.6,0,0,1-3.594.84c-.991.218-3.728.924-3.661,3.8.067,2.821,2.889,3.8,4.854,3.728a5.671,5.671,0,0,0,3.527-1.26c.286-.218.286-.218.487.067a4.359,4.359,0,0,0,3.376,1.192c2.25,0,2.536-1.058,2.67-1.411C90.578,335.75,90.141,335.549,89.94,335.9Zm-8.733.773a2.371,2.371,0,0,1-2.469-2.469,4.261,4.261,0,0,1,2.4-3.527,18.407,18.407,0,0,1,2.67-1.26h.134v.067h0v3.241C83.961,334.978,82.819,336.674,81.206,336.674Zm-6.751-.067c-.571-.134-1.545-.773-1.545-3.88V327.1c0-1.344.134-4.786-5.139-4.786a7.112,7.112,0,0,0-4.434,1.478c-.218.218-.353.285-.42-.067-.067-.286-.218-.705-.286-.991-.067-.218-.218-.42-.705-.353s-3.594.571-4.148.705c-.487.134-.353.353,0,.42s2.049.218,2.049,3.09v6.063c0,3.527-.705,3.8-1.344,4.014-.84.218-.42.487-.067.487h6.415c.42,0,.638-.42-.218-.571-.84-.134-1.612-.638-1.612-3.376v-3.88c0-1.478-.353-5.979,3.728-6.063,2.889-.067,3.174,2.318,3.174,3.88v6c0,2.469-.705,3.241-1.545,3.376-.773.134-.638.487-.218.487h6.55C75.009,337.161,75.362,336.808,74.455,336.607ZM57.342,335.9a1.343,1.343,0,0,1-1.192.84c-.42,0-1.7-.067-1.7-3.376v-7.1c0-2.183-1.7-3.947-6.063-3.947-4.719,0-4.786,2.318-4.786,2.889-.067.638.286,1.344,1.478,1.344,1.058,0,1.344-1.192,1.478-1.612a1.954,1.954,0,0,1,2.116-1.9c1.612,0,2.6,1.411,2.67,3.443v.773c0,.134,0,.285-.067.353v.067h0a1.684,1.684,0,0,1-1.125,1.344,20.6,20.6,0,0,1-3.594.84c-.991.218-3.728.924-3.661,3.8.067,2.821,2.889,3.8,4.854,3.728a5.671,5.671,0,0,0,3.527-1.26c.286-.218.286-.218.487.067a4.359,4.359,0,0,0,3.376,1.192c2.25,0,2.536-1.058,2.67-1.411C57.963,335.75,57.476,335.549,57.342,335.9Zm-8.8.773a2.371,2.371,0,0,1-2.469-2.469,4.184,4.184,0,0,1,2.4-3.527,18.407,18.407,0,0,1,2.67-1.26h.134a.235.235,0,0,1,.067.134h0v.134h0v.067h0v2.956C51.346,334.978,50.221,336.674,48.541,336.674Zm-6.768-6.13c-.705,2.25-2.049,5.912-6.9,6.063-5.072.067-8.095-3.376-8.246-9.791-.218-6.835,2.754-12.042,7.322-12.176,5.139-.067,6.97,6.063,7.037,6.97a.5.5,0,1,0,.991-.067c0-.353-.42-6.415-.571-7.1-.134-.705-.705-.42-.84-.134-.067.218.067-.218-.218.42s-1.058.286-1.344.218a10.9,10.9,0,0,0-5.072-1.125c-5.962.118-12.075,4.551-11.941,12.294A11.647,11.647,0,0,0,33.813,337.8a8.718,8.718,0,0,0,8.867-7.037C42.966,329.839,42.059,329.637,41.773,330.544Z" transform="translate(0 0)"/></g></svg>