<svg xmlns="http://www.w3.org/2000/svg" width="167.914" height="40" viewBox="0 0 167.914 40"><defs><style>.a{fill:#fff;}</style></defs><g transform="translate(-21.987 -313.8)"><path class="a" d="M544.818,314.6h6.1v12.2h-6.1Zm-10.553,6.1-.364.112s2.1,1.763,2.1,1.875c.112.112.224.112.112.476s-.224.7-.224.7,1.875-.364,2.1-.476c.224,0,.364,0,.364.224s-.112,2.239-.112,2.239h.588s-.112-2.1-.112-2.239c0-.224.112-.224.364-.224.224,0,2.1.476,2.1.476a4.39,4.39,0,0,0-.224-.7c-.112-.364,0-.364.112-.476s2.1-1.875,2.1-1.875l-.364-.112c-.224-.112-.112-.224-.112-.364s.364-1.288.364-1.288-.952.224-1.064.224-.224,0-.224-.112a3.265,3.265,0,0,0-.224-.588s-1.063,1.176-1.176,1.288c-.224.224-.476,0-.364-.224,0-.224.588-2.687.588-2.687s-.588.364-.812.476-.364.112-.364-.112c-.112-.224-.812-1.539-.812-1.651,0,0-.7,1.4-.812,1.651-.112.224-.224.224-.364.112-.224-.112-.812-.476-.812-.476s.588,2.463.588,2.687-.112.364-.364.224l-1.176-1.288a1.652,1.652,0,0,1-.224.476c0,.112-.112.224-.224.112a11.191,11.191,0,0,1-1.176-.224,9.454,9.454,0,0,0,.476,1.288C534.489,320.338,534.489,320.59,534.265,320.7Zm-7.865-6.1h6.1v12.2h-6.1Z" transform="translate(-363.224 -0.576)"/><path class="a" d="M188.984,350.636a2.238,2.238,0,0,1-1.987,1.4c-.7,0-2.827-.112-2.827-5.626v-11.84c0-3.639-2.827-6.578-10.1-6.578-7.865,0-7.977,3.863-7.977,4.814-.112,1.064.476,2.239,2.463,2.239,1.763,0,2.239-1.987,2.463-2.687.224-.812.364-3.163,3.527-3.163,2.687,0,4.339,2.351,4.451,5.738v1.875h0v.112a2.806,2.806,0,0,1-1.875,2.239c-1.4.7-5.514,1.288-5.99,1.4-1.651.364-6.214,1.54-6.1,6.326.112,4.7,4.814,6.326,8.089,6.214a9.451,9.451,0,0,0,5.878-2.1c.476-.364.476-.364.812.112.476.476,1.987,1.987,5.626,1.987,3.751,0,4.227-1.763,4.451-2.351C190.047,350.384,189.208,350.048,188.984,350.636Zm-14.667,1.288a3.952,3.952,0,0,1-4.115-4.115c0-1.288.7-4,4-5.878a30.681,30.681,0,0,1,4.451-2.1h.224a.391.391,0,0,1,.112.224h0v.112h0v.112h0v4.926C179.019,349.1,177.143,351.923,174.316,351.923Zm-10.8-.112c-.476-.112-3.415.224-3.415-8.677V315.088c0-.364,0-1.288-1.064-1.288s-8.089.364-8.565.476c-.476,0-.812.588,0,.588.812.112,4.59.364,4.59,6.578v8.565c0,.224,0,.364-.112.476v.112h0c-.112.112-.224,0-.588-.224a11.942,11.942,0,0,0-6.69-2.1c-5.514,0-12.316,4-12.316,12.2,0,8.789,6.214,13.016,12.68,13.016a11.876,11.876,0,0,0,6.214-1.875c.952-.588.812-.476.952.364.112.588,0,1.763,1.651,1.652,1.763-.224,5.99-.7,6.8-.812C164.464,352.4,164.212,351.923,163.512,351.811Zm-14.555.336c-5.15,0-7.865-6.1-7.865-11.98,0-6.466,3.639-10.8,7.5-10.552,5.038.364,6.326,4.339,6.466,11.5v1.539C154.947,349.684,152.008,352.147,148.957,352.147Zm-13.715-1.512a2.238,2.238,0,0,1-1.987,1.4c-.7,0-2.827-.112-2.827-5.626v-11.84c0-3.639-2.827-6.578-10.1-6.578-7.865,0-7.977,3.863-7.977,4.814-.112,1.064.476,2.239,2.463,2.239,1.763,0,2.239-1.987,2.463-2.687.224-.812.364-3.163,3.527-3.163,2.687,0,4.451,2.351,4.451,5.878v1.176a2.971,2.971,0,0,1-1.987,3.051c-1.4.7-5.514,1.288-5.99,1.4-1.651.364-6.214,1.539-6.1,6.326.112,4.7,4.814,6.326,8.089,6.214a9.452,9.452,0,0,0,5.878-2.1c.476-.364.476-.364.812.112.476.476,1.987,1.987,5.626,1.987,3.751,0,4.227-1.763,4.451-2.351C136.3,350.384,135.577,350.048,135.241,350.636Zm-14.555,1.288a3.952,3.952,0,0,1-4.115-4.115c0-1.288.7-4,4-5.878a30.679,30.679,0,0,1,4.451-2.1h.224v.112h0v5.4C125.277,349.1,123.373,351.923,120.686,351.923Zm-11.252-.112c-.952-.224-2.575-1.288-2.575-6.466v-9.377c0-2.239.224-7.977-8.565-7.977a11.853,11.853,0,0,0-7.39,2.463c-.364.364-.588.476-.7-.112-.112-.476-.364-1.176-.476-1.651-.112-.364-.364-.7-1.176-.588s-5.99.952-6.914,1.176c-.812.224-.588.588,0,.7s3.415.364,3.415,5.15v10.1c0,5.878-1.176,6.326-2.239,6.69-1.4.364-.7.812-.112.812H93.4c.7,0,1.064-.7-.364-.952-1.4-.224-2.687-1.064-2.687-5.626v-6.466c0-2.463-.588-9.965,6.214-10.1,4.814-.112,5.29,3.863,5.29,6.466v9.993c0,4.115-1.176,5.4-2.575,5.626-1.288.224-1.064.812-.364.812h10.916C110.358,352.735,110.945,352.147,109.434,351.811Zm-28.523-1.176a2.238,2.238,0,0,1-1.987,1.4c-.7,0-2.827-.112-2.827-5.626v-11.84c0-3.639-2.827-6.578-10.1-6.578-7.865,0-7.977,3.863-7.977,4.814-.112,1.064.476,2.239,2.463,2.239,1.763,0,2.239-1.987,2.463-2.687.224-.812.364-3.163,3.527-3.163,2.687,0,4.339,2.351,4.451,5.738v1.288c0,.224,0,.476-.112.588v.112h0a2.806,2.806,0,0,1-1.875,2.239c-1.4.7-5.514,1.288-5.99,1.4-1.651.364-6.214,1.54-6.1,6.326.112,4.7,4.814,6.326,8.089,6.214a9.451,9.451,0,0,0,5.878-2.1c.476-.364.476-.364.812.112.476.476,1.987,1.987,5.626,1.987,3.751,0,4.227-1.763,4.451-2.351C81.947,350.384,81.135,350.048,80.911,350.636Zm-14.667,1.288a3.952,3.952,0,0,1-4.115-4.115c0-1.4.7-4,4-5.878a30.679,30.679,0,0,1,4.451-2.1h.224a.391.391,0,0,1,.112.224h0v.224h0v.112h0v4.926C70.919,349.1,69.043,351.923,66.244,351.923Zm-11.28-10.217c-1.176,3.751-3.415,9.853-11.5,10.1-8.453.112-13.492-5.626-13.743-16.319-.364-11.392,4.59-20.069,12.2-20.293,8.565-.112,11.616,10.1,11.728,11.616A.829.829,0,1,0,55.3,326.7c0-.588-.7-10.692-.952-11.84-.224-1.176-1.176-.7-1.4-.224-.112.364.112-.364-.364.7s-1.763.476-2.239.364a18.165,18.165,0,0,0-8.453-1.875c-9.937.2-20.125,7.586-19.9,20.489A19.412,19.412,0,0,0,41.7,353.8c8.565-.112,13.38-5.514,14.779-11.728C56.951,340.531,55.44,340.2,54.964,341.707Z" transform="translate(0)"/></g></svg>